<?xml version="1.0" encoding="utf-8"?>
<!-- Generator: Adobe Illustrator 17.1.0, SVG Export Plug-In . SVG Version: 6.00 Build 0)  -->
<!DOCTYPE svg PUBLIC "-//W3C//DTD SVG 1.1//EN" "http://www.w3.org/Graphics/SVG/1.1/DTD/svg11.dtd">
<svg version="1.1" id="Layer_9" xmlns="http://www.w3.org/2000/svg" xmlns:xlink="http://www.w3.org/1999/xlink" x="0px" y="0px"
	 viewBox="39 0 121 100" enable-background="new 39 0 121 100" xml:space="preserve">
<g>
	<g>
		<g>
			<path fill="#FFFFFF" d="M47.5,77.4c-1.4,0-2.5,0.5-3.3,1.5c-0.8,1-1.2,2.4-1.2,4.1c0,1.8,0.4,3.2,1.2,4.2
				c0.8,0.9,1.9,1.4,3.4,1.4c0.6,0,1.3-0.1,1.8-0.2c0.6-0.1,1.2-0.3,1.9-0.5V90c-1.2,0.4-2.5,0.7-4,0.7c-2.2,0-3.9-0.7-5.1-2
				c-1.2-1.3-1.8-3.2-1.8-5.7c0-1.6,0.3-2.9,0.9-4.1c0.6-1.2,1.4-2.1,2.5-2.7c1.1-0.6,2.3-0.9,3.8-0.9c1.5,0,2.9,0.3,4.2,1l-0.9,2
				c-0.5-0.2-1-0.4-1.6-0.6C48.8,77.5,48.2,77.4,47.5,77.4z"/>
			<path fill="#FFFFFF" d="M60.2,79c0.5,0,0.9,0,1.2,0.1l-0.2,2.2c-0.3-0.1-0.7-0.1-1.1-0.1c-1,0-1.7,0.3-2.3,0.9
				c-0.6,0.6-0.9,1.4-0.9,2.5v5.9h-2.4V79.2h1.9l0.3,2h0.1c0.4-0.7,0.9-1.2,1.5-1.6C58.8,79.1,59.5,79,60.2,79z"/>
			<path fill="#FFFFFF" d="M68.9,90.7c-1.8,0-3.1-0.5-4.1-1.5c-1-1-1.5-2.4-1.5-4.2c0-1.9,0.5-3.3,1.4-4.4c0.9-1.1,2.2-1.6,3.8-1.6
				c1.5,0,2.7,0.5,3.5,1.4s1.3,2.2,1.3,3.8v1.3h-7.6c0,1.1,0.3,1.9,0.9,2.5c0.6,0.6,1.4,0.9,2.4,0.9c0.7,0,1.3-0.1,1.9-0.2
				c0.6-0.1,1.2-0.3,1.9-0.6v2c-0.6,0.3-1.2,0.5-1.8,0.6C70.3,90.6,69.7,90.7,68.9,90.7z M68.4,80.8c-0.8,0-1.4,0.2-1.8,0.7
				c-0.5,0.5-0.7,1.2-0.8,2.1h5.1c0-0.9-0.2-1.6-0.7-2.1C69.8,81,69.2,80.8,68.4,80.8z"/>
			<path fill="#FFFFFF" d="M80.5,90.7c-1.4,0-2.5-0.5-3.3-1.5c-0.8-1-1.2-2.5-1.2-4.3c0-1.9,0.4-3.3,1.2-4.3c0.8-1,1.9-1.6,3.3-1.6
				c1.5,0,2.6,0.6,3.4,1.7h0.1c-0.1-0.8-0.2-1.5-0.2-1.9v-4.1h2.4v16h-1.9L84,89h-0.1C83.1,90.1,82,90.7,80.5,90.7z M81.2,88.8
				c1,0,1.7-0.3,2.2-0.8c0.5-0.6,0.7-1.5,0.7-2.7v-0.3c0-1.4-0.2-2.4-0.7-3c-0.5-0.6-1.2-0.9-2.2-0.9c-0.8,0-1.5,0.3-2,1
				c-0.5,0.7-0.7,1.7-0.7,2.9c0,1.3,0.2,2.2,0.7,2.9C79.6,88.4,80.3,88.8,81.2,88.8z"/>
			<path fill="#FFFFFF" d="M90.1,76.2c0-0.4,0.1-0.8,0.4-1c0.2-0.2,0.6-0.3,1-0.3c0.4,0,0.8,0.1,1,0.3s0.4,0.6,0.4,1
				c0,0.4-0.1,0.7-0.4,1c-0.2,0.2-0.6,0.4-1,0.4c-0.4,0-0.8-0.1-1-0.4C90.2,76.9,90.1,76.6,90.1,76.2z M92.6,90.5h-2.4V79.2h2.4
				V90.5z"/>
			<path fill="#FFFFFF" d="M100.8,88.8c0.6,0,1.2-0.1,1.8-0.3v1.8c-0.3,0.1-0.6,0.2-1,0.3c-0.4,0.1-0.9,0.1-1.3,0.1
				c-2.3,0-3.4-1.2-3.4-3.6V81h-1.5v-1.1L97,79l0.8-2.4h1.5v2.5h3.2V81h-3.2v6.1c0,0.6,0.1,1,0.4,1.3
				C100,88.6,100.4,88.8,100.8,88.8z"/>
			<path fill="#FFFFFF" d="M114.5,75.5h2.5l-5.2,15h-2.6l-5.2-15h2.5l3.1,9.3c0.2,0.4,0.3,1,0.5,1.7c0.2,0.7,0.3,1.2,0.4,1.6
				c0.1-0.5,0.2-1.1,0.4-1.8s0.3-1.2,0.5-1.5L114.5,75.5z"/>
			<path fill="#FFFFFF" d="M119.5,76.2c0-0.4,0.1-0.8,0.4-1s0.6-0.3,1-0.3c0.4,0,0.8,0.1,1,0.3c0.2,0.2,0.4,0.6,0.4,1
				c0,0.4-0.1,0.7-0.4,1c-0.2,0.2-0.6,0.4-1,0.4c-0.4,0-0.8-0.1-1-0.4C119.6,76.9,119.5,76.6,119.5,76.2z M122.1,90.5h-2.4V79.2h2.4
				V90.5z"/>
			<path fill="#FFFFFF" d="M130.9,90.7c-1.8,0-3.1-0.5-4.1-1.5c-1-1-1.5-2.4-1.5-4.2c0-1.9,0.5-3.3,1.4-4.4c0.9-1.1,2.2-1.6,3.8-1.6
				c1.5,0,2.7,0.5,3.5,1.4c0.9,0.9,1.3,2.2,1.3,3.8v1.3h-7.6c0,1.1,0.3,1.9,0.9,2.5c0.6,0.6,1.4,0.9,2.4,0.9c0.7,0,1.3-0.1,1.9-0.2
				c0.6-0.1,1.2-0.3,1.9-0.6v2c-0.6,0.3-1.2,0.5-1.8,0.6C132.4,90.6,131.7,90.7,130.9,90.7z M130.5,80.8c-0.8,0-1.4,0.2-1.8,0.7
				c-0.5,0.5-0.7,1.2-0.8,2.1h5.1c0-0.9-0.2-1.6-0.7-2.1C131.9,81,131.3,80.8,130.5,80.8z"/>
			<path fill="#FFFFFF" d="M147.9,90.5l-1.5-5.3c-0.2-0.6-0.5-1.9-1-3.9h-0.1c-0.4,1.8-0.7,3.2-0.9,3.9l-1.5,5.3h-2.7l-3.2-11.3h2.5
				l1.4,5.6c0.3,1.4,0.6,2.6,0.7,3.5h0.1c0.1-0.5,0.2-1.1,0.3-1.7c0.1-0.6,0.3-1.1,0.4-1.5l1.7-6h2.6l1.7,6c0.1,0.3,0.2,0.8,0.4,1.5
				c0.2,0.7,0.2,1.2,0.3,1.6h0.1c0.1-0.8,0.3-2,0.7-3.5l1.5-5.6h2.4l-3.2,11.3C150.6,90.5,147.9,90.5,147.9,90.5z"/>
		</g>
	</g>
	<g>
		<path fill="#FFFFFF" d="M152.7,89.5c0,0.2,0,0.3,0.1,0.4c0.1,0.2,0.3,0.3,0.6,0.3c0.1,0,0.3,0,0.4-0.1c0.2-0.1,0.3-0.2,0.3-0.4
			c0-0.2,0-0.3-0.1-0.3c-0.1-0.1-0.2-0.1-0.4-0.2l-0.4-0.1c-0.2-0.1-0.4-0.1-0.5-0.2c-0.2-0.1-0.2-0.3-0.2-0.5
			c0-0.3,0.1-0.5,0.2-0.6c0.2-0.2,0.4-0.3,0.7-0.3c0.3,0,0.5,0.1,0.7,0.2c0.2,0.1,0.3,0.4,0.3,0.7h-0.3c0-0.2-0.1-0.3-0.1-0.4
			c-0.1-0.2-0.3-0.2-0.5-0.2c-0.2,0-0.4,0-0.4,0.1c-0.1,0.1-0.1,0.2-0.1,0.3c0,0.1,0.1,0.2,0.2,0.3c0.1,0,0.2,0.1,0.5,0.2l0.4,0.1
			c0.2,0,0.3,0.1,0.4,0.2c0.2,0.1,0.2,0.3,0.2,0.6c0,0.3-0.1,0.6-0.3,0.7c-0.2,0.1-0.5,0.2-0.7,0.2c-0.3,0-0.6-0.1-0.8-0.3
			c-0.2-0.2-0.3-0.4-0.3-0.7L152.7,89.5L152.7,89.5z"/>
		<path fill="#FFFFFF" d="M155.1,87.5h0.5l0.8,2.5l0.8-2.5h0.5v2.9h-0.3v-1.7c0-0.1,0-0.2,0-0.3c0-0.1,0-0.3,0-0.4l-0.8,2.5h-0.4
			l-0.8-2.5v0.1c0,0.1,0,0.2,0,0.3c0,0.1,0,0.3,0,0.3v1.7h-0.3L155.1,87.5L155.1,87.5z"/>
	</g>
	<g>
		<path fill="#FFFFFF" d="M127.8,64.4l-6.9-8.8c-0.3-0.3-0.7-0.4-1.1-0.2c-1.1,1.4-2.5,2.5-4,3.3c-0.1,0.3-0.1,0.6,0.1,0.9l6.9,8.7
			c0.3,0.4,0.9,0.5,1.4,0.2l3.5-2.7C128.1,65.4,128.1,64.8,127.8,64.4z"/>
		<path fill="#FFFFFF" d="M113.1,38c-5.4-1.7-11.2,1.3-12.9,6.8c-0.4,1.1-0.5,2.3-0.5,3.4c0.1,4.3,2.9,8.2,7.2,9.5
			c5.4,1.7,11.2-1.3,12.9-6.8c0.3-1.1,0.5-2.3,0.5-3.4C120.2,43.2,117.4,39.3,113.1,38z M117.2,50.1c-0.6,1.9-1.9,3.5-3.7,4.4
			c-1.8,0.9-3.8,1.1-5.7,0.5c-3.1-0.9-5.2-3.7-5.3-6.9c0-0.8,0.1-1.7,0.3-2.5c0.6-1.9,1.9-3.5,3.7-4.4c1.8-0.9,3.8-1.1,5.7-0.5
			c3.1,1,5.2,3.7,5.3,6.9C117.6,48.4,117.5,49.3,117.2,50.1z"/>
		<g>
			<path fill="#FFFFFF" d="M120.9,16.6c-1.5,0.1-2.7,1.1-3.2,2.5c-0.4,1.2-0.2,2.4,0.3,3.3c-2.2,2.2-6.9,7.1-9,9.3
				c-0.9-0.5-1.9-0.7-2.9-0.5c-1.2,0.3-2.1,1.1-2.6,2.1c-3.1-0.6-9.9-1.8-12.9-2.3c-0.2-2-1.9-3.7-4.1-3.5c-1.5,0.1-2.8,1.1-3.3,2.5
				c-0.4,1.2-0.3,2.3,0.3,3.3c-2.2,2.3-6.5,7.2-8.6,9.3c-0.7-0.4-1.5-0.6-2.3-0.4c-1.4,0.2-2.6,1.2-3.1,2.5
				c-0.9,2.6,1.1,5.3,3.9,5.1c1.5-0.1,2.8-1.1,3.3-2.5c0.4-1.2,0.3-2.4-0.3-3.3l-0.1-0.1c0.9-0.9,3.3-4,6.2-6.9l2.4-2.4
				c0.7,0.4,1.5,0.6,2.4,0.5c1.3-0.2,2.5-1.1,3-2.3c0,0,0,0.1,0,0.1c1.3,0.3,5.5,1,9.5,1.7l3.3,0.6c0,0.3,0.1,0.6,0.2,1
				c0.6-0.3,1.2-0.6,1.8-0.9c-0.2-0.9,0.3-2,1.3-2.2c0.7-0.2,1.5,0.1,1.9,0.7c0.2,0.2,0.3,0.5,0.3,0.8c0.7,0,1.3,0,2,0.1
				c0-0.5-0.2-1.1-0.5-1.6c0.9-0.9,3.9-4,6.7-7l2.4-2.4c0.7,0.4,1.5,0.6,2.4,0.4c1.4-0.2,2.6-1.2,3.1-2.5
				C125.8,19.1,123.7,16.4,120.9,16.6z M74.9,46.6c-0.2,0.7-0.9,1.2-1.7,1.2c-1.3,0.1-2.3-1.2-1.8-2.5c0.2-0.7,0.9-1.2,1.7-1.2
				C74.4,44.1,75.3,45.4,74.9,46.6z M88.6,32c-0.3,0.7-0.9,1.2-1.7,1.2c-1.3,0-2.3-1.2-1.8-2.5c0.2-0.7,0.9-1.2,1.7-1.2
				C88.1,29.5,89.1,30.7,88.6,32z M123,21.1c-0.2,0.7-0.9,1.2-1.6,1.2c-1.3,0.1-2.3-1.2-1.8-2.5c0.2-0.7,0.9-1.2,1.6-1.2
				C122.5,18.5,123.5,19.8,123,21.1z"/>
		</g>
		<g>
			<path fill="#FFFFFF" d="M127.5,11.5H66.8c-1.9,0-3.6,1.6-3.6,3.6V53c0,1.9,1.6,3.6,3.6,3.6h33.4c-1.6-1.1-2.2-1.9-3.1-3.6H66.2
				V14.5h61.3V53h-3.7l3.1,3.6h0.6c1.9,0,3.6-1.6,3.6-3.6V15.1C131.1,13.2,129.5,11.5,127.5,11.5z"/>
		</g>
	</g>
</g>
</svg>
