<?xml version="1.0" encoding="utf-8"?>
<!-- Generator: Adobe Illustrator 17.1.0, SVG Export Plug-In . SVG Version: 6.00 Build 0)  -->
<!DOCTYPE svg PUBLIC "-//W3C//DTD SVG 1.1//EN" "http://www.w3.org/Graphics/SVG/1.1/DTD/svg11.dtd">
<svg version="1.1" id="Layer_1_copy" xmlns="http://www.w3.org/2000/svg" xmlns:xlink="http://www.w3.org/1999/xlink" x="0px"
	 y="0px" viewBox="0 0 245 66" enable-background="new 0 0 245 66" xml:space="preserve">
<g>
	<path fill="#FFFFFF" d="M47.9805,20.056c0,4.6099-1.4404,8.1348-4.3213,10.5762c-2.8813,2.4414-6.9775,3.6621-12.29,3.6621h-3.8965
		v15.2344h-9.082V6.6966h13.6816c5.1953,0,9.145,1.1182,11.8506,3.3545C46.6279,12.2879,47.9805,15.6224,47.9805,20.056z
		 M27.4727,26.8529h2.9883c2.793,0,4.8823-0.5518,6.2695-1.6553c1.3867-1.103,2.0801-2.71,2.0801-4.8193
		c0-2.1284-0.5815-3.7012-1.7432-4.7168c-1.1621-1.0151-2.9839-1.5234-5.4639-1.5234h-4.1309V26.8529z"/>
	<path fill="#FFFFFF" d="M69.3247,16.1595c1.2109,0,2.2163,0.0879,3.0176,0.2637l-0.6738,8.3789
		c-0.7227-0.1948-1.6016-0.293-2.6367-0.293c-2.8521,0-5.0732,0.7324-6.665,2.1973c-1.5923,1.4648-2.3877,3.5156-2.3877,6.1523
		v16.6699h-8.9355V16.7747h6.7676l1.3184,5.5078h0.4395c1.0151-1.8354,2.3877-3.3149,4.1162-4.4385
		C65.4136,16.721,67.293,16.1595,69.3247,16.1595z"/>
	<path fill="#FFFFFF" d="M105.415,33.0931c0,5.332-1.4062,9.502-4.2188,12.5098s-6.7285,4.5117-11.748,4.5117
		c-3.145,0-5.918-0.6885-8.3203-2.0654s-4.248-3.3545-5.5371-5.9326s-1.9336-5.5859-1.9336-9.0234
		c0-5.3511,1.396-9.5112,4.1895-12.4805c2.793-2.9688,6.7188-4.4531,11.7773-4.4531c3.1445,0,5.918,0.6841,8.3203,2.0508
		c2.4023,1.3672,4.248,3.3301,5.5371,5.8887C104.7705,26.658,105.415,29.6556,105.415,33.0931z M82.7686,33.0931
		c0,3.2422,0.5317,5.6934,1.5967,7.3535c1.0645,1.6602,2.7979,2.4902,5.2002,2.4902c2.3828,0,4.0967-0.8252,5.1416-2.4756
		c1.0444-1.6504,1.5674-4.1064,1.5674-7.3682c0-3.2417-0.5273-5.6733-1.582-7.2949c-1.0547-1.6211-2.7832-2.4316-5.1855-2.4316
		c-2.3833,0-4.1016,0.8057-5.1562,2.417S82.7686,29.8314,82.7686,33.0931z"/>
	<path fill="#FFFFFF" d="M123.8965,42.9954c1.5625,0,3.4375-0.3418,5.625-1.0254v6.6504c-2.2266,0.9961-4.9609,1.4941-8.2031,1.4941
		c-3.5742,0-6.1768-0.9033-7.8076-2.71s-2.4463-4.5166-2.4463-8.1299v-15.791h-4.2773v-3.7793l4.9219-2.9883l2.5781-6.9141H120
		v6.9727h9.1699v6.709H120v15.791c0,1.2695,0.3564,2.207,1.0693,2.8125S122.7246,42.9954,123.8965,42.9954z"/>
	<path fill="#FFFFFF" d="M149.4014,50.1146c-5.2734,0-9.3945-1.4551-12.3633-4.3652s-4.4531-7.0312-4.4531-12.3633
		c0-5.4883,1.3721-9.731,4.1162-12.7295c2.7441-2.998,6.5381-4.4971,11.3818-4.4971c4.6289,0,8.2324,1.3184,10.8105,3.9551
		s3.8672,6.2798,3.8672,10.9277v4.3359h-21.123c0.0977,2.5391,0.8496,4.5215,2.2559,5.9473s3.3789,2.1387,5.918,2.1387
		c1.9727,0,3.8379-0.2051,5.5957-0.6152s3.5938-1.0645,5.5078-1.9629v6.9141c-1.5625,0.7812-3.2324,1.3623-5.0098,1.7432
		S151.96,50.1146,149.4014,50.1146z M148.1416,22.5169c-1.8945,0-3.3789,0.6006-4.4531,1.8018s-1.6895,2.9053-1.8457,5.1123h12.5391
		c-0.0391-2.207-0.6152-3.9111-1.7285-5.1123S150.0361,22.5169,148.1416,22.5169z"/>
	<path fill="#FFFFFF" d="M182.4443,50.1146c-10.1953,0-15.293-5.5957-15.293-16.7871c0-5.5664,1.3867-9.8188,4.1602-12.7588
		c2.7734-2.9395,6.748-4.4092,11.9238-4.4092c3.7891,0,7.1875,0.7427,10.1953,2.2266l-2.6367,6.9141
		c-1.4062-0.5664-2.7148-1.0298-3.9258-1.3916c-1.2109-0.3613-2.4219-0.542-3.6328-0.542c-4.6484,0-6.9727,3.3008-6.9727,9.9023
		c0,6.4062,2.3242,9.6094,6.9727,9.6094c1.7188,0,3.3105-0.2295,4.7754-0.6885s2.9297-1.1768,4.3945-2.1533v7.6465
		c-1.4453,0.918-2.9053,1.5527-4.3799,1.9043S184.6904,50.1146,182.4443,50.1146z"/>
	<path fill="#FFFFFF" d="M213.6182,42.9954c1.5625,0,3.4375-0.3418,5.625-1.0254v6.6504c-2.2266,0.9961-4.9609,1.4941-8.2031,1.4941
		c-3.5742,0-6.1768-0.9033-7.8076-2.71s-2.4463-4.5166-2.4463-8.1299v-15.791h-4.2773v-3.7793l4.9219-2.9883l2.5781-6.9141h5.7129
		v6.9727h9.1699v6.709h-9.1699v15.791c0,1.2695,0.3564,2.207,1.0693,2.8125S212.4463,42.9954,213.6182,42.9954z"/>
	<path fill="#FFFFFF" d="M222.7451,45.3392c0-1.6406,0.4395-2.8809,1.3184-3.7207s2.1582-1.2598,3.8379-1.2598
		c1.6211,0,2.876,0.4297,3.7646,1.2891s1.333,2.0898,1.333,3.6914c0,1.543-0.4492,2.7588-1.3477,3.6475s-2.1484,1.333-3.75,1.333
		c-1.6406,0-2.9102-0.4346-3.8086-1.3037S222.7451,46.9212,222.7451,45.3392z"/>
</g>
</svg>
