<?xml version="1.0" encoding="utf-8"?>
<!-- Generator: Adobe Illustrator 17.1.0, SVG Export Plug-In . SVG Version: 6.00 Build 0)  -->
<!DOCTYPE svg PUBLIC "-//W3C//DTD SVG 1.1//EN" "http://www.w3.org/Graphics/SVG/1.1/DTD/svg11.dtd">
<svg version="1.1" id="Layer_1" xmlns="http://www.w3.org/2000/svg" xmlns:xlink="http://www.w3.org/1999/xlink" x="0px" y="0px"
	 viewBox="0 0 245 66" enable-background="new 0 0 245 66" xml:space="preserve">
<g>
	<path fill="#FFFFFF" d="M13.082,33.0931v16.4355H4V6.6966h12.4805c5.8198,0,10.1265,1.0596,12.9199,3.1787
		c2.793,2.1196,4.1895,5.3369,4.1895,9.6533c0,2.5195-0.6934,4.7607-2.0801,6.7236c-1.3872,1.9629-3.3501,3.501-5.8887,4.6143
		c6.4453,9.6289,10.6445,15.8496,12.5977,18.6621H28.1406L17.916,33.0931H13.082z M13.082,25.7103h2.9297
		c2.8711,0,4.9902-0.4785,6.3574-1.4355c1.3667-0.9565,2.0508-2.4609,2.0508-4.5117c0-2.0312-0.6987-3.4761-2.0947-4.3359
		c-1.3965-0.8594-3.5596-1.2891-6.4893-1.2891H13.082V25.7103z"/>
	<path fill="#FFFFFF" d="M53.5903,50.1146c-5.2734,0-9.3945-1.4551-12.3633-4.3652c-2.9692-2.9102-4.4531-7.0312-4.4531-12.3633
		c0-5.4883,1.3721-9.731,4.1162-12.7295c2.7437-2.998,6.5376-4.4971,11.3818-4.4971c4.6289,0,8.2324,1.3184,10.8105,3.9551
		s3.8672,6.2798,3.8672,10.9277v4.3359h-21.123c0.0977,2.5391,0.8496,4.5215,2.2559,5.9473s3.3789,2.1387,5.918,2.1387
		c1.9727,0,3.8379-0.2051,5.5957-0.6152s3.5933-1.0645,5.5078-1.9629v6.9141c-1.563,0.7812-3.2329,1.3623-5.0098,1.7432
		C58.3169,49.9242,56.1489,50.1146,53.5903,50.1146z M52.3306,22.5169c-1.8945,0-3.3794,0.6006-4.4531,1.8018
		c-1.0742,1.2012-1.6895,2.9053-1.8457,5.1123h12.5391c-0.0396-2.207-0.6152-3.9111-1.7285-5.1123S54.2246,22.5169,52.3306,22.5169z
		"/>
	<path fill="#FFFFFF" d="M94.1875,39.8021c0,3.3594-1.168,5.918-3.502,7.6758c-2.3335,1.7578-5.8252,2.6367-10.4731,2.6367
		c-2.3833,0-4.4141-0.1611-6.0938-0.4834c-1.6802-0.3223-3.252-0.7959-4.7168-1.4209v-7.3828
		c1.6597,0.7812,3.5303,1.4355,5.6104,1.9629s3.9111,0.791,5.4932,0.791c3.2417,0,4.8633-0.9375,4.8633-2.8125
		c0-0.7031-0.2153-1.2744-0.6445-1.7139c-0.4297-0.4395-1.1719-0.9375-2.2266-1.4941s-2.4609-1.2061-4.2188-1.9482
		c-2.5195-1.0547-4.3701-2.0312-5.5518-2.9297c-1.1821-0.8984-2.041-1.9287-2.5781-3.0908
		c-0.5376-1.1616-0.8057-2.5928-0.8057-4.292c0-2.9102,1.1279-5.1606,3.3838-6.7529c2.2559-1.5918,5.4536-2.3877,9.5947-2.3877
		c3.9448,0,7.7837,0.8599,11.5142,2.5781l-2.6953,6.4453c-1.6406-0.7031-3.1748-1.2788-4.6001-1.7285
		c-1.4258-0.4492-2.8813-0.6738-4.3652-0.6738c-2.6367,0-3.9551,0.7134-3.9551,2.1387c0,0.8013,0.4248,1.4941,1.2744,2.0801
		s2.71,1.4551,5.5811,2.6074c2.5586,1.0352,4.4341,2.002,5.6255,2.9004c1.1914,0.8984,2.0703,1.9336,2.6367,3.1055
		S94.1875,38.181,94.1875,39.8021z"/>
	<path fill="#FFFFFF" d="M115.7881,50.1146c-3.8477,0-6.8652-1.3965-9.0527-4.1895h-0.4688
		c0.3125,2.7344,0.4688,4.3164,0.4688,4.7461v13.2715h-8.9355v-47.168h7.2656l1.2598,4.248h0.4102
		c2.0898-3.2417,5.1855-4.8633,9.2871-4.8633c3.8672,0,6.8945,1.4941,9.082,4.4824s3.2812,7.1387,3.2812,12.4512
		c0,3.4961-0.5127,6.5332-1.5381,9.1113s-2.4854,4.541-4.3799,5.8887S118.3467,50.1146,115.7881,50.1146z M113.1514,23.3079
		c-2.207,0-3.8184,0.6787-4.834,2.0361c-1.0156,1.3579-1.543,3.5991-1.582,6.7236v0.9668c0,3.5156,0.5225,6.0352,1.5674,7.5586
		s2.7002,2.2852,4.9658,2.2852c4.0039,0,6.0059-3.3008,6.0059-9.9023c0-3.2227-0.4932-5.6396-1.4795-7.251
		S115.2607,23.3079,113.1514,23.3079z"/>
	<path fill="#FFFFFF" d="M162.4736,33.0931c0,5.332-1.4062,9.502-4.2188,12.5098s-6.7285,4.5117-11.748,4.5117
		c-3.1445,0-5.918-0.6885-8.3203-2.0654s-4.248-3.3545-5.5371-5.9326s-1.9336-5.5859-1.9336-9.0234
		c0-5.3511,1.3965-9.5112,4.1895-12.4805c2.793-2.9688,6.7188-4.4531,11.7773-4.4531c3.1445,0,5.918,0.6841,8.3203,2.0508
		c2.4023,1.3672,4.248,3.3301,5.5371,5.8887C161.8291,26.658,162.4736,29.6556,162.4736,33.0931z M139.8271,33.0931
		c0,3.2422,0.5322,5.6934,1.5967,7.3535s2.7979,2.4902,5.2002,2.4902c2.3828,0,4.0967-0.8252,5.1416-2.4756
		s1.5674-4.1064,1.5674-7.3682c0-3.2417-0.5273-5.6733-1.582-7.2949c-1.0547-1.6211-2.7832-2.4316-5.1855-2.4316
		c-2.3828,0-4.1016,0.8057-5.1562,2.417S139.8271,29.8314,139.8271,33.0931z"/>
	<path fill="#FFFFFF" d="M196.5508,49.5286h-8.9355V30.3978c0-2.3628-0.4199-4.1353-1.2598-5.3174
		c-0.8398-1.1816-2.1777-1.7725-4.0137-1.7725c-2.5,0-4.3066,0.835-5.4199,2.5049s-1.6699,4.4385-1.6699,8.3057v15.4102h-8.9355
		V16.7747h6.8262l1.2012,4.1895h0.498c0.9961-1.582,2.3682-2.7783,4.1162-3.5889c1.748-0.8101,3.7354-1.2158,5.9619-1.2158
		c3.8086,0,6.6992,1.0303,8.6719,3.0908c1.9727,2.061,2.959,5.0347,2.959,8.9209V49.5286z"/>
	<path fill="#FFFFFF" d="M211.502,50.1146c-3.8477,0-6.8701-1.4941-9.0674-4.4824s-3.2959-7.1289-3.2959-12.4219
		c0-5.3711,1.1182-9.5552,3.3545-12.5537c2.2363-2.998,5.3174-4.4971,9.2432-4.4971c4.1211,0,7.2656,1.6016,9.4336,4.8047h0.293
		c-0.4492-2.4414-0.6738-4.6187-0.6738-6.5332V3.9427h8.9648v45.5859h-6.8555l-1.7285-4.248h-0.3809
		C218.7578,48.5033,215.6621,50.1146,211.502,50.1146z M214.6367,42.9954c2.2852,0,3.96-0.6641,5.0244-1.9922
		s1.6455-3.584,1.7432-6.7676v-0.9668c0-3.5156-0.542-6.0352-1.626-7.5586s-2.8467-2.2852-5.2881-2.2852
		c-1.9922,0-3.54,0.8452-4.6436,2.5342c-1.1035,1.6895-1.6553,4.1455-1.6553,7.3682s0.5566,5.6396,1.6699,7.251
		S212.5664,42.9954,214.6367,42.9954z"/>
	<path fill="#FFFFFF" d="M233.6992,45.3392c0-1.6406,0.4395-2.8809,1.3184-3.7207s2.1582-1.2598,3.8379-1.2598
		c1.6211,0,2.876,0.4297,3.7646,1.2891s1.333,2.0898,1.333,3.6914c0,1.543-0.4492,2.7588-1.3477,3.6475s-2.1484,1.333-3.75,1.333
		c-1.6406,0-2.9102-0.4346-3.8086-1.3037S233.6992,46.9212,233.6992,45.3392z"/>
</g>
</svg>
