<?xml version="1.0" encoding="utf-8"?>
<!-- Generator: Adobe Illustrator 17.1.0, SVG Export Plug-In . SVG Version: 6.00 Build 0)  -->
<!DOCTYPE svg PUBLIC "-//W3C//DTD SVG 1.1//EN" "http://www.w3.org/Graphics/SVG/1.1/DTD/svg11.dtd">
<svg version="1.1" id="Layer_1_copy_2" xmlns="http://www.w3.org/2000/svg" xmlns:xlink="http://www.w3.org/1999/xlink" x="0px"
	 y="0px" viewBox="0 0 245 66" enable-background="new 0 0 245 66" xml:space="preserve">
<g>
	<path fill="#FFFFFF" d="M27.8057,33.0931v16.4355h-9.082V6.6966h12.4805c5.8198,0,10.1265,1.0596,12.9199,3.1787
		c2.793,2.1196,4.1895,5.3369,4.1895,9.6533c0,2.5195-0.6934,4.7607-2.0801,6.7236c-1.3872,1.9629-3.3501,3.501-5.8887,4.6143
		c6.4453,9.6289,10.6445,15.8496,12.5977,18.6621H42.8643L32.6396,33.0931H27.8057z M27.8057,25.7103h2.9297
		c2.8711,0,4.9902-0.4785,6.3574-1.4355c1.3667-0.9565,2.0508-2.4609,2.0508-4.5117c0-2.0312-0.6987-3.4761-2.0947-4.3359
		c-1.3965-0.8594-3.5596-1.2891-6.4893-1.2891h-2.7539V25.7103z"/>
	<path fill="#FFFFFF" d="M68.0142,50.1146c-5.2734,0-9.3945-1.4551-12.3633-4.3652c-2.9692-2.9102-4.4531-7.0312-4.4531-12.3633
		c0-5.4883,1.3721-9.731,4.1162-12.7295c2.7437-2.998,6.5376-4.4971,11.3818-4.4971c4.6289,0,8.2324,1.3184,10.8105,3.9551
		s3.8672,6.2798,3.8672,10.9277v4.3359h-21.123c0.0977,2.5391,0.8496,4.5215,2.2559,5.9473s3.3789,2.1387,5.918,2.1387
		c1.9727,0,3.8379-0.2051,5.5957-0.6152s3.5933-1.0645,5.5078-1.9629v6.9141c-1.563,0.7812-3.2329,1.3623-5.0098,1.7432
		C72.7407,49.9242,70.5728,50.1146,68.0142,50.1146z M66.7544,22.5169c-1.8945,0-3.3794,0.6006-4.4531,1.8018
		c-1.0742,1.2012-1.6895,2.9053-1.8457,5.1123h12.5391c-0.0396-2.207-0.6152-3.9111-1.7285-5.1123S68.6484,22.5169,66.7544,22.5169z
		"/>
	<path fill="#FFFFFF" d="M109.5107,39.8021c0,3.3594-1.167,5.918-3.501,7.6758s-5.8257,2.6367-10.4736,2.6367
		c-2.3833,0-4.4141-0.1611-6.0938-0.4834c-1.6802-0.3223-3.252-0.7959-4.7168-1.4209v-7.3828
		c1.6597,0.7812,3.5303,1.4355,5.6104,1.9629s3.9111,0.791,5.4932,0.791c3.2417,0,4.8633-0.9375,4.8633-2.8125
		c0-0.7031-0.2153-1.2744-0.6445-1.7139c-0.4297-0.4395-1.1719-0.9375-2.2266-1.4941s-2.4609-1.2061-4.2188-1.9482
		c-2.5195-1.0547-4.3701-2.0312-5.5518-2.9297c-1.1821-0.8984-2.041-1.9287-2.5781-3.0908
		c-0.5376-1.1616-0.8057-2.5928-0.8057-4.292c0-2.9102,1.1279-5.1606,3.3838-6.7529c2.2559-1.5918,5.4536-2.3877,9.5947-2.3877
		c3.9448,0,7.7832,0.8599,11.5137,2.5781l-2.6953,6.4453c-1.6406-0.7031-3.1743-1.2788-4.5996-1.7285
		c-1.4258-0.4492-2.8813-0.6738-4.3652-0.6738c-2.6367,0-3.9551,0.7134-3.9551,2.1387c0,0.8013,0.4248,1.4941,1.2744,2.0801
		s2.71,1.4551,5.5811,2.6074c2.5586,1.0352,4.4336,2.002,5.625,2.9004c1.1914,0.8984,2.0703,1.9336,2.6367,3.1055
		S109.5107,38.181,109.5107,39.8021z"/>
	<path fill="#FFFFFF" d="M128.542,42.9954c1.5625,0,3.4375-0.3418,5.625-1.0254v6.6504c-2.2266,0.9961-4.9609,1.4941-8.2031,1.4941
		c-3.5742,0-6.1768-0.9033-7.8076-2.71s-2.4463-4.5166-2.4463-8.1299v-15.791h-4.2773v-3.7793l4.9219-2.9883l2.5781-6.9141h5.7129
		v6.9727h9.1699v6.709h-9.1699v15.791c0,1.2695,0.3564,2.207,1.0693,2.8125S127.3701,42.9954,128.542,42.9954z"/>
	<path fill="#FFFFFF" d="M167.7334,33.0931c0,5.332-1.4062,9.502-4.2188,12.5098s-6.7285,4.5117-11.748,4.5117
		c-3.1445,0-5.918-0.6885-8.3203-2.0654s-4.248-3.3545-5.5371-5.9326s-1.9336-5.5859-1.9336-9.0234
		c0-5.3511,1.3965-9.5112,4.1895-12.4805c2.793-2.9688,6.7188-4.4531,11.7773-4.4531c3.1445,0,5.918,0.6841,8.3203,2.0508
		c2.4023,1.3672,4.248,3.3301,5.5371,5.8887C167.0889,26.658,167.7334,29.6556,167.7334,33.0931z M145.0869,33.0931
		c0,3.2422,0.5322,5.6934,1.5967,7.3535s2.7979,2.4902,5.2002,2.4902c2.3828,0,4.0967-0.8252,5.1416-2.4756
		s1.5674-4.1064,1.5674-7.3682c0-3.2417-0.5273-5.6733-1.582-7.2949c-1.0547-1.6211-2.7832-2.4316-5.1855-2.4316
		c-2.3828,0-4.1016,0.8057-5.1562,2.417S145.0869,29.8314,145.0869,33.0931z"/>
	<path fill="#FFFFFF" d="M189.5576,16.1595c1.2109,0,2.2168,0.0879,3.0176,0.2637l-0.6738,8.3789
		c-0.7227-0.1948-1.6016-0.293-2.6367-0.293c-2.8516,0-5.0732,0.7324-6.665,2.1973s-2.3877,3.5156-2.3877,6.1523v16.6699h-8.9355
		V16.7747h6.7676l1.3184,5.5078h0.4395c1.0156-1.8354,2.3877-3.3149,4.1162-4.4385
		C185.6465,16.721,187.5264,16.1595,189.5576,16.1595z"/>
	<path fill="#FFFFFF" d="M210.6475,50.1146c-5.2734,0-9.3945-1.4551-12.3633-4.3652s-4.4531-7.0312-4.4531-12.3633
		c0-5.4883,1.3721-9.731,4.1162-12.7295c2.7441-2.998,6.5381-4.4971,11.3818-4.4971c4.6289,0,8.2324,1.3184,10.8105,3.9551
		s3.8672,6.2798,3.8672,10.9277v4.3359h-21.123c0.0977,2.5391,0.8496,4.5215,2.2559,5.9473s3.3789,2.1387,5.918,2.1387
		c1.9727,0,3.8379-0.2051,5.5957-0.6152s3.5938-1.0645,5.5078-1.9629v6.9141c-1.5625,0.7812-3.2324,1.3623-5.0098,1.7432
		S213.2061,50.1146,210.6475,50.1146z M209.3877,22.5169c-1.8945,0-3.3789,0.6006-4.4531,1.8018s-1.6895,2.9053-1.8457,5.1123
		h12.5391c-0.0391-2.207-0.6152-3.9111-1.7285-5.1123S211.2822,22.5169,209.3877,22.5169z"/>
	<path fill="#FFFFFF" d="M226.6523,45.3392c0-1.6406,0.4395-2.8809,1.3184-3.7207s2.1582-1.2598,3.8379-1.2598
		c1.6211,0,2.876,0.4297,3.7646,1.2891s1.333,2.0898,1.333,3.6914c0,1.543-0.4492,2.7588-1.3477,3.6475s-2.1484,1.333-3.75,1.333
		c-1.6406,0-2.9102-0.4346-3.8086-1.3037S226.6523,46.9212,226.6523,45.3392z"/>
</g>
</svg>
