<?xml version="1.0" encoding="utf-8"?>
<!-- Generator: Adobe Illustrator 17.1.0, SVG Export Plug-In . SVG Version: 6.00 Build 0)  -->
<!DOCTYPE svg PUBLIC "-//W3C//DTD SVG 1.1//EN" "http://www.w3.org/Graphics/SVG/1.1/DTD/svg11.dtd">
<svg version="1.1" id="Layer_4" xmlns="http://www.w3.org/2000/svg" xmlns:xlink="http://www.w3.org/1999/xlink" x="0px" y="0px"
	 viewBox="0 9.5 245 77.5" enable-background="new 0 9.5 245 77.5" xml:space="preserve">
<g>
	<path fill="#FFFFFF" d="M20.4,38.7h-2.2v-6.2h-6.3v6.2H9.7V25.1h2.2v5.5h6.3v-5.5h2.2C20.4,25.1,20.4,38.7,20.4,38.7z"/>
	<path fill="#FFFFFF" d="M27.3,38.7c-1.6,0-2.8-0.5-3.7-1.4c-1-1-1.4-2.2-1.4-3.8s0.5-3.1,1.2-3.9c0.9-1,2-1.4,3.5-1.4
		c1.4,0,2.5,0.5,3.2,1.2c0.9,0.9,1.1,2,1.1,3.3v1.1h-6.9c0,1,0.4,1.7,0.9,2.3c0.5,0.6,1.1,0.9,2.1,0.9c0.6,0,1.1,0,1.7-0.1
		c0.5-0.1,1-0.4,1.6-0.6v1.7c-0.6,0.2-1,0.5-1.6,0.6C28.8,38.7,28.1,38.7,27.3,38.7z M27.1,29.8c-0.7,0-1.2,0.2-1.6,0.7
		c-0.5,0.5-0.7,1-0.7,1.8h4.7c0-0.9-0.2-1.5-0.6-2C28.2,30.1,27.7,29.8,27.1,29.8z"/>
	<path fill="#FFFFFF" d="M35.7,38.7h-2.2V24.2h2.2V38.7z"/>
	<path fill="#FFFFFF" d="M43.5,38.7c-1.2,0-2.3-0.5-3.1-1.4h-0.1c0.1,0.9,0.1,1.4,0.1,1.6v4.2h-2.2V28.4h1.7c0,0.2,0.1,0.7,0.4,1.4
		h0.2c0.7-1,1.7-1.5,3.1-1.5c1.2,0,2.3,0.5,3.1,1.4c0.8,1,1,2.2,1,3.9c0,1.6-0.4,3.1-1,3.9C45.8,38.3,44.8,38.7,43.5,38.7z M43.1,30
		c-0.9,0-1.5,0.2-1.8,0.9c-0.4,0.5-0.6,1.2-0.6,2.5v0.4c0,1.2,0.2,2.1,0.6,2.7c0.4,0.6,1,0.9,2,0.9c0.7,0,1.2-0.4,1.7-1
		c0.5-0.6,0.6-1.5,0.6-2.7c0-1.1-0.2-2-0.6-2.6C44.4,30.3,43.7,30,43.1,30z"/>
	<path fill="#FFFFFF" d="M59.7,38.7l-3.9-11.3h-0.1c0.1,1.6,0.1,3.2,0.1,4.8v6.6h-2V25.1h3.1l3.6,10.8l0,0l3.8-10.8h3.1v13.4h-2.1
		v-6.8c0-0.7,0-1.5,0-2.7c0-1,0.1-1.7,0.1-2h-0.1l-4.1,11.3L59.7,38.7L59.7,38.7z"/>
	<path fill="#FFFFFF" d="M75.1,38.7c-1.6,0-2.8-0.5-3.7-1.4S70,35.1,70,33.5s0.5-3.1,1.2-3.9c0.8-0.9,2-1.4,3.5-1.4
		c1.4,0,2.5,0.5,3.2,1.2c0.9,0.9,1.1,2,1.1,3.3v1.1h-6.9c0,1,0.4,1.7,0.9,2.3c0.5,0.6,1.1,0.9,2.1,0.9c0.6,0,1.1,0,1.7-0.1
		c0.5-0.1,1-0.4,1.6-0.6v1.7c-0.6,0.2-1,0.5-1.6,0.6C76.5,38.7,75.8,38.7,75.1,38.7z M74.7,29.8c-0.7,0-1.2,0.2-1.6,0.7
		c-0.5,0.5-0.7,1-0.7,1.8h4.7c0-0.9-0.2-1.5-0.6-2C76,30.1,75.4,29.8,74.7,29.8z"/>
	<path fill="#FFFFFF" d="M87.7,38.7h-2.2V25.1h7.6v1.8h-5.4v4.3h5.2V33h-5.2V38.7z"/>
	<path fill="#FFFFFF" d="M95,25.7c0-0.4,0.1-0.7,0.4-1c0.2-0.2,0.5-0.4,1-0.4c0.4,0,0.7,0.1,1,0.4c0.2,0.2,0.4,0.5,0.4,1
		c0,0.4-0.1,0.7-0.4,1c-0.2,0.2-0.5,0.4-1,0.4c-0.4,0-0.7-0.1-1-0.4C95.1,26.3,95,26.1,95,25.7z M97.3,38.7h-2.2V28.4h2.2V38.7z"/>
	<path fill="#FFFFFF" d="M108.9,38.7h-2.2v-6.3c0-0.9-0.1-1.4-0.5-1.7c-0.4-0.4-0.9-0.6-1.5-0.6c-1,0-1.6,0.2-2,0.9
		c-0.5,0.6-0.7,1.5-0.7,2.8v5.2h-2.2V28.5h1.7l0.4,1.4h0.1c0.4-0.5,0.7-0.9,1.2-1.1c0.6-0.2,1.1-0.4,1.8-0.4c2.5,0,3.7,1.2,3.7,3.7
		L108.9,38.7L108.9,38.7z"/>
	<path fill="#FFFFFF" d="M115,38.7c-1.2,0-2.3-0.5-3.1-1.4c-0.7-1-1-2.2-1-3.9c0-1.6,0.4-3.1,1-3.9c0.7-1,1.7-1.4,3.1-1.4
		c1.4,0,2.3,0.5,3.1,1.5h0.1c-0.1-0.7-0.1-1.2-0.1-1.7v-3.6h2.2v14.4h-1.7l-0.4-1.4H118C117.4,38.3,116.4,38.7,115,38.7z M115.6,37
		c1,0,1.5-0.2,2-0.7c0.5-0.5,0.6-1.2,0.6-2.5v-0.4c0-1.2-0.2-2.2-0.6-2.8c-0.5-0.6-1-0.9-2-0.9c-0.9,0-1.4,0.4-1.7,1
		c-0.5,0.6-0.6,1.5-0.6,2.7c0,1.1,0.2,2,0.6,2.6C114.2,36.7,114.8,37,115.6,37z"/>
	<path fill="#FFFFFF" d="M132.9,38.7L129,27.4h-0.1c0.1,1.6,0.1,3.2,0.1,4.8v6.6h-2V25.1h3.1l3.7,10.8l0,0l3.8-10.8h3.1v13.4h-2.1
		v-6.8c0-0.7,0-1.5,0-2.7c0-1,0.1-1.7,0.1-2h0.1l-4,11.3L132.9,38.7L132.9,38.7z"/>
	<path fill="#FFFFFF" d="M142.6,28.4h2.3l2.1,5.8c0.4,0.9,0.6,1.6,0.6,2.3h0.1c0-0.4,0.1-0.7,0.4-1.2c0.1-0.5,1-2.8,2.3-6.9h2.3
		l-4.3,11.6c-0.9,2.1-2.1,3.1-3.9,3.1c-0.5,0-1,0-1.4-0.1v-1.7c0.4,0.1,0.7,0.1,1.1,0.1c1,0,1.7-0.6,2.2-1.8l0.4-1L142.6,28.4z"/>
	<path fill="#FFFFFF" d="M165.4,34.9c0,1.1-0.5,2.1-1.2,2.8c-0.9,0.7-2.1,1-3.6,1s-2.8-0.2-3.7-0.7V36c0.6,0.2,1.2,0.5,2,0.7
		c0.7,0.1,1.4,0.2,2,0.2c1,0,1.5-0.1,2-0.5c0.5-0.4,0.6-0.9,0.6-1.4c0-0.5-0.2-1-0.6-1.2c-0.4-0.4-1.1-0.9-2.3-1.2
		c-1.2-0.5-2.1-1-2.6-1.7c-0.5-0.7-0.9-1.4-0.9-2.3c0-1.1,0.4-2,1.1-2.7c0.8-0.7,1.8-1,3.2-1c1.2,0,2.6,0.2,3.8,0.9l-0.7,1.8
		c-1.1-0.5-2.3-0.9-3.2-0.9c-0.7,0-1.2,0.1-1.6,0.5c-0.4,0.4-0.6,0.7-0.6,1.2c0,0.4,0.1,0.7,0.2,1c0.1,0.2,0.4,0.5,0.7,0.7
		c0.4,0.2,1,0.5,1.8,1c1,0.5,1.7,0.9,2.2,1.1c0.5,0.4,0.9,0.9,1,1.1C165.2,33.8,165.4,34.4,165.4,34.9z"/>
	<path fill="#FFFFFF" d="M176.6,33.5c0,1.6-0.5,3.1-1.2,3.9c-0.9,1-2.1,1.4-3.6,1.4c-1,0-1.8-0.2-2.6-0.7c-0.7-0.5-1.2-1-1.7-1.8
		c-0.4-0.9-0.6-1.7-0.6-2.8c0-1.6,0.5-2.9,1.2-3.8c0.9-1,2.1-1.4,3.6-1.4s2.7,0.5,3.5,1.4C176.1,30.6,176.6,31.9,176.6,33.5z
		 M169.2,33.5c0,2.3,1,3.6,2.7,3.6s2.6-1.1,2.6-3.6c0-2.3-0.9-3.5-2.6-3.5c-1,0-1.6,0.4-2,1C169.3,31.6,169.2,32.4,169.2,33.5z"/>
	<path fill="#FFFFFF" d="M180.9,38.7h-2.2V24.2h2.2V38.7z"/>
	<path fill="#FFFFFF" d="M190.7,38.7l-0.4-1.4h-0.1c-0.4,0.5-0.7,0.9-1.2,1.1c-0.6,0.2-1.1,0.5-1.8,0.5c-1.2,0-2.2-0.4-2.8-1
		c-0.6-0.6-1-1.5-1-2.8v-6.8h2.2v6.4c0,0.9,0.1,1.4,0.5,1.7c0.4,0.4,0.9,0.6,1.5,0.6c1,0,1.6-0.2,2-0.9c0.5-0.6,0.7-1.5,0.7-2.8
		v-5.2h2.2v10.3L190.7,38.7L190.7,38.7z"/>
	<path fill="#FFFFFF" d="M199,37c0.6,0,1-0.1,1.6-0.2v1.6c-0.2,0.1-0.6,0.2-1,0.2c-0.4,0.1-0.9,0.1-1.1,0.1c-2.1,0-3.1-1-3.1-3.2
		v-5.4H194v-1l1.5-0.9l0.7-2.2h1.4v2.3h2.9V30h-2.9v5.4c0,0.6,0.1,1,0.4,1.1C198.3,36.9,198.6,37,199,37z"/>
	<path fill="#FFFFFF" d="M202.1,25.7c0-0.4,0.1-0.7,0.4-1c0.2-0.2,0.5-0.4,1-0.4c0.4,0,0.7,0.1,1,0.4c0.2,0.2,0.4,0.5,0.4,1
		c0,0.4-0.1,0.7-0.4,1c-0.2,0.2-0.5,0.4-1,0.4c-0.4,0-0.7-0.1-1-0.4C202.3,26.3,202.1,26.1,202.1,25.7z M204.5,38.7h-2.2V28.4h2.2
		V38.7z"/>
	<path fill="#FFFFFF" d="M216.2,33.5c0,1.6-0.5,3.1-1.2,3.9c-0.9,1-2.1,1.4-3.6,1.4c-1,0-1.8-0.2-2.6-0.7s-1.2-1-1.7-1.8
		c-0.4-0.9-0.6-1.7-0.6-2.8c0-1.6,0.5-2.9,1.2-3.8c0.9-1,2.1-1.4,3.6-1.4s2.7,0.5,3.5,1.4C215.7,30.6,216.2,31.9,216.2,33.5z
		 M208.7,33.5c0,2.3,1,3.6,2.7,3.6c1.7,0,2.6-1.1,2.6-3.6c0-2.3-0.9-3.5-2.6-3.5c-1,0-1.6,0.4-2,1C208.8,31.6,208.7,32.4,208.7,33.5
		z"/>
	<path fill="#FFFFFF" d="M227.2,38.7H225v-6.3c0-0.9-0.1-1.4-0.5-1.7c-0.4-0.4-0.9-0.6-1.5-0.6c-1,0-1.6,0.2-2,0.9
		c-0.5,0.6-0.6,1.5-0.6,2.8v5.2h-2.2V28.5h1.7l0.4,1.4h0.1c0.4-0.5,0.7-0.9,1.2-1.1c0.6-0.2,1.1-0.4,1.8-0.4c2.5,0,3.7,1.2,3.7,3.7
		L227.2,38.7L227.2,38.7z"/>
	<path fill="#FFFFFF" d="M236.8,35.8c0,1-0.4,1.7-1,2.3c-0.7,0.6-1.7,0.9-3.1,0.9s-2.5-0.2-3.2-0.6v-1.8c1.1,0.6,2.3,0.9,3.3,0.9
		c1.4,0,2-0.4,2-1.1c0-0.2-0.1-0.5-0.2-0.7c-0.1-0.1-0.4-0.4-0.7-0.6c-0.4-0.2-0.9-0.4-1.4-0.6c-1.1-0.5-2-1-2.5-1.4
		c-0.5-0.5-0.6-1-0.6-1.7c0-1,0.4-1.5,1-2.1c0.7-0.5,1.6-0.7,2.9-0.7c1.1,0,2.3,0.2,3.3,0.7l-0.7,1.6c-1.1-0.5-2.1-0.7-2.8-0.7
		c-1.1,0-1.7,0.4-1.7,1c0,0.4,0.1,0.6,0.5,0.9c0.4,0.2,1,0.6,2,1c0.9,0.4,1.5,0.6,1.8,1c0.4,0.2,0.7,0.6,0.9,1
		C236.7,34.8,236.8,35.3,236.8,35.8z"/>
</g>
<polygon fill="#FFFFFF" points="123.5,61.5 109.9,55.5 100.8,55.5 123.5,65.4 145.8,55.5 136.8,55.5 "/>
</svg>
