<?xml version="1.0" encoding="utf-8"?>
<!-- Generator: Adobe Illustrator 17.1.0, SVG Export Plug-In . SVG Version: 6.00 Build 0)  -->
<!DOCTYPE svg PUBLIC "-//W3C//DTD SVG 1.1//EN" "http://www.w3.org/Graphics/SVG/1.1/DTD/svg11.dtd">
<svg version="1.1" id="logo" xmlns="http://www.w3.org/2000/svg" xmlns:xlink="http://www.w3.org/1999/xlink" x="0px" y="0px"
	 viewBox="0 23 245 58" style="enable-background:new 0 23 245 58;" xml:space="preserve">
<g id="Layer_2">
	<g>
		<path style="fill:#FFFFFF;" d="M79.5,64c-0.4,0.7-1,1.2-1.7,1.5c-0.2,0.1-0.3,0.1-0.5,0.2s-0.3,0.1-0.5,0.1s-0.4,0.1-0.7,0.1
			c-0.3,0-0.6,0-0.9,0h-1.5v4.8h-2.6v-13h3.4c0.6,0,1,0,1.4,0s0.7,0.1,1,0.1c0.3,0.1,0.5,0.1,0.7,0.2c0.2,0.1,0.4,0.2,0.6,0.3
			c0.6,0.3,1.1,0.8,1.4,1.4c0.3,0.6,0.5,1.2,0.5,2C80.1,62.6,79.9,63.4,79.5,64z M76.7,60.4c-0.3-0.3-0.7-0.5-1.3-0.5h-1.7v3.9h1.4
			c0.5,0,0.9,0,1.1-0.1s0.4-0.3,0.6-0.5c0.1-0.2,0.2-0.4,0.2-0.6c0-0.2,0.1-0.5,0.1-0.8C77.2,61.2,77,60.7,76.7,60.4z"/>
		<path style="fill:#FFFFFF;" d="M87.3,70.8c-0.2-0.2-0.4-0.4-0.6-0.7c-0.1,0.1-0.2,0.2-0.3,0.3c-0.1,0.1-0.2,0.2-0.3,0.2
			c-0.5,0.4-1.1,0.5-1.9,0.5c-1.1,0-1.9-0.3-2.5-0.8s-0.8-1.3-0.8-2.2c0-1.1,0.4-2,1.1-2.5c0.8-0.5,1.9-0.8,3.5-0.8h0.3
			c0.1,0,0.2,0,0.3,0v-0.4c0-0.5-0.1-0.9-0.2-1.1C85.8,63.1,85.5,63,85,63c-0.4,0-0.8,0.1-1.3,0.3s-1,0.5-1.5,0.8l-1.1-1.8
			c0.3-0.2,0.5-0.3,0.7-0.4c0.2-0.1,0.5-0.2,0.8-0.4c0.5-0.2,0.9-0.3,1.3-0.4c0.4-0.1,0.8-0.1,1.3-0.1c0.8,0,1.5,0.1,2,0.4
			s0.9,0.7,1.1,1.2c0.1,0.1,0.1,0.3,0.1,0.4c0,0.2,0,0.4,0,0.6v0.7l-0.1,3.2c0,0.3,0,0.5,0,0.7s0,0.4,0.1,0.5
			c0.1,0.2,0.2,0.3,0.3,0.5c0.1,0.1,0.3,0.3,0.5,0.5l-1.3,1.5C87.8,71.1,87.5,71,87.3,70.8z M84.2,66.9c-0.3,0.2-0.5,0.6-0.5,1.1
			c0,0.4,0.1,0.7,0.3,0.9c0.2,0.2,0.5,0.3,0.8,0.3c0.5,0,0.9-0.2,1.3-0.6v-2H86C85.1,66.6,84.5,66.7,84.2,66.9z"/>
		<path style="fill:#FFFFFF;" d="M94.9,63.2c-0.6,0-1.1,0.3-1.5,0.8v6.8h-2.5v-6.4c0-0.7,0-1.2-0.1-1.7s-0.2-0.9-0.3-1.1l2.3-0.6
			c0.2,0.4,0.4,0.8,0.4,1.4c0.3-0.4,0.6-0.7,1-1S95,61,95.5,61c0.2,0,0.3,0,0.5,0c0.1,0,0.3,0.1,0.5,0.2l-0.7,2.2
			C95.4,63.2,95.1,63.2,94.9,63.2z"/>
		<path style="fill:#FFFFFF;" d="M100.6,71c-0.6,0-1.2-0.1-1.7-0.4s-0.8-0.6-0.9-1c0-0.1-0.1-0.2-0.1-0.3s0-0.2,0-0.3
			c0-0.1,0-0.2,0-0.4c0-0.1,0-0.3,0-0.6v-5.2h-1v-1.7h1c0-0.5,0-0.9,0-1.2s0-0.7,0.1-1.1l2.6-0.6c-0.1,0.4-0.1,0.9-0.1,1.4
			s0,1,0,1.5h2.3l-0.6,1.7h-1.6v4.8c0,0.3,0,0.5,0,0.7s0.1,0.4,0.2,0.5s0.2,0.2,0.3,0.2c0.1,0,0.3,0.1,0.5,0.1c0.1,0,0.2,0,0.4,0
			c0.1,0,0.3-0.1,0.5-0.1l0.3,1.5C101.9,70.8,101.2,71,100.6,71z"/>
		<path style="fill:#FFFFFF;" d="M109.1,64.5c0-0.5-0.1-0.9-0.2-1.1c-0.1-0.2-0.3-0.3-0.7-0.3c-0.3,0-0.5,0.1-0.8,0.2
			c-0.3,0.2-0.6,0.4-0.9,0.6v6.8H104v-7c0-0.8-0.1-1.6-0.3-2.3l2.2-0.6c0.2,0.4,0.4,0.8,0.4,1.2c0.2-0.1,0.4-0.3,0.5-0.4
			c0.2-0.1,0.4-0.2,0.6-0.3s0.5-0.2,0.8-0.3s0.6-0.1,0.9-0.1c0.5,0,1,0.1,1.4,0.4c0.4,0.3,0.7,0.6,0.9,1c0.1,0.3,0.2,0.8,0.2,1.4v7
			h-2.4v-6.2H109.1z"/>
		<path style="fill:#FFFFFF;" d="M115.9,66.8c0,0.8,0.2,1.3,0.5,1.7s0.9,0.6,1.5,0.6c0.9,0,1.7-0.3,2.4-1l1,1.5
			c-1.1,0.9-2.3,1.3-3.6,1.3c-0.7,0-1.3-0.1-1.9-0.4s-1-0.6-1.4-1s-0.7-1-0.9-1.6c-0.2-0.6-0.3-1.3-0.3-2c0-0.9,0.1-1.6,0.3-2.2
			c0.2-0.6,0.5-1.1,0.9-1.6c0.4-0.4,0.8-0.8,1.3-1s1.1-0.3,1.7-0.3s1.1,0.1,1.6,0.3s0.9,0.4,1.2,0.8c0.4,0.5,0.8,1,1,1.7
			s0.3,1.5,0.3,2.5v0.6L115.9,66.8L115.9,66.8z M118.8,63.9c0-0.2-0.1-0.4-0.2-0.6c-0.3-0.4-0.6-0.5-1.1-0.5s-0.9,0.2-1.1,0.5
			c-0.3,0.3-0.4,0.8-0.4,1.5l0,0h2.9v-0.1C118.9,64.4,118.8,64.1,118.8,63.9z"/>
		<path style="fill:#FFFFFF;" d="M127.1,63.2c-0.6,0-1.1,0.3-1.5,0.8v6.8H123v-6.4c0-0.7,0-1.2-0.1-1.7s-0.2-0.9-0.3-1.1l2.3-0.6
			c0.2,0.4,0.4,0.8,0.4,1.4c0.3-0.4,0.6-0.7,1-1s0.8-0.4,1.3-0.4c0.2,0,0.3,0,0.5,0c0.1,0,0.3,0.1,0.5,0.2l-0.7,2.2
			C127.6,63.2,127.4,63.2,127.1,63.2z"/>
		<path style="fill:#FFFFFF;" d="M136.2,69.1c-0.2,0.4-0.5,0.8-0.8,1.1c-0.4,0.3-0.8,0.5-1.3,0.7s-1.1,0.2-1.7,0.2
			c-1.2,0-2.5-0.4-3.9-1.1l0.9-1.8c0.2,0.1,0.4,0.2,0.7,0.4c0.3,0.1,0.5,0.3,0.8,0.4s0.6,0.2,0.9,0.3c0.3,0.1,0.6,0.1,0.9,0.1
			c0.4,0,0.7-0.1,0.9-0.3s0.4-0.5,0.4-0.8s-0.1-0.6-0.3-0.8c-0.2-0.2-0.6-0.3-1.1-0.4l-1.1-0.2c-0.3-0.1-0.7-0.2-1-0.4
			c-0.3-0.2-0.6-0.4-0.8-0.6s-0.3-0.5-0.4-0.8S129,64.3,129,64c0-0.5,0.1-0.9,0.3-1.3c0.2-0.4,0.4-0.7,0.8-1
			c0.3-0.3,0.7-0.5,1.2-0.6c0.5-0.2,1-0.2,1.5-0.2c0.8,0,1.4,0.1,2,0.3c0.5,0.2,1,0.4,1.5,0.6l-0.8,1.7c-0.5-0.3-0.9-0.4-1.3-0.5
			c-0.4-0.1-0.7-0.2-1.1-0.2c-0.4,0-0.7,0.1-0.9,0.3s-0.3,0.4-0.3,0.7s0.1,0.4,0.3,0.6c0.2,0.1,0.5,0.3,0.9,0.4l1.2,0.3
			c0.6,0.2,1,0.3,1.3,0.5s0.5,0.4,0.7,0.6c0.4,0.4,0.5,1,0.5,1.6C136.5,68.2,136.4,68.7,136.2,69.1z"/>
		<path style="fill:#FFFFFF;" d="M143.5,64.3c0-0.5-0.1-0.8-0.2-1c-0.1-0.2-0.4-0.3-0.8-0.3c-0.3,0-0.7,0.1-1,0.3
			c-0.4,0.2-0.7,0.4-1,0.6v6.9H138V59.7c0-0.5,0-0.9,0-1.3c0-0.4-0.1-0.7-0.1-0.9l2.6-0.6c0.1,0.3,0.1,0.6,0.1,1s0,0.9,0,1.3v1.9
			c0,0.2,0,0.3,0,0.5s0,0.3,0,0.3c0.3-0.3,0.7-0.6,1.2-0.8s1-0.3,1.5-0.3c0.6,0,1.1,0.1,1.6,0.4c0.5,0.2,0.8,0.6,0.9,1
			c0.1,0.1,0.1,0.3,0.1,0.4c0,0.1,0.1,0.2,0.1,0.4c0,0.1,0,0.3,0,0.4c0,0.2,0,0.4,0,0.6v6.7h-2.5L143.5,64.3L143.5,64.3z"/>
		<path style="fill:#FFFFFF;" d="M150.5,59.6c-0.3,0.3-0.7,0.5-1.1,0.5c-0.4,0-0.8-0.1-1.1-0.5c-0.3-0.3-0.5-0.7-0.5-1.1
			c0-0.4,0.2-0.8,0.5-1.1s0.7-0.5,1.1-0.5c0.4,0,0.8,0.2,1.1,0.5s0.4,0.7,0.4,1.1C151,58.9,150.8,59.3,150.5,59.6z M148.2,61.3
			l2.5-0.4v9.8h-2.5V61.3z"/>
		<path style="fill:#FFFFFF;" d="M161.1,67.1c0,0.4-0.1,0.8-0.2,1.1c-0.1,0.3-0.2,0.6-0.4,0.9s-0.4,0.5-0.6,0.8
			c-0.3,0.3-0.7,0.6-1.1,0.8c-0.4,0.2-0.9,0.3-1.4,0.3c-0.4,0-0.7,0-1.1-0.1c-0.3-0.1-0.6-0.2-0.9-0.4c0,0.1,0,0.1,0,0.2
			s0,0.1,0,0.2v3.4l-2.4,0.6V63c0-0.2,0-0.4,0-0.6s0-0.3,0-0.5s0-0.3-0.1-0.5L155,61c0,0.2,0.1,0.3,0.1,0.5s0,0.3,0.1,0.4
			c0.2-0.3,0.5-0.5,1-0.6s0.9-0.3,1.4-0.3s1,0.1,1.5,0.3s0.8,0.5,1.1,0.9s0.6,0.8,0.8,1.4c0.2,0.6,0.3,1.3,0.3,2.1
			C161.2,66.2,161.1,66.7,161.1,67.1z M158.4,64.7c0-0.4-0.1-0.7-0.2-0.9c-0.2-0.5-0.6-0.8-1.2-0.8c-0.7,0-1.2,0.2-1.7,0.7v4.7
			c0.2,0.1,0.4,0.3,0.6,0.4c0.2,0.1,0.5,0.2,0.8,0.2c0.6,0,1.1-0.2,1.3-0.7s0.4-1.2,0.4-2.3C158.4,65.5,158.4,65.1,158.4,64.7z"/>
		<path style="fill:#FFFFFF;" d="M174.5,64c-0.4,0.7-1,1.2-1.7,1.5c-0.2,0.1-0.3,0.1-0.5,0.2s-0.3,0.1-0.5,0.1s-0.4,0.1-0.7,0.1
			s-0.6,0-0.9,0h-1.5v4.8h-2.6v-13h3.4c0.6,0,1,0,1.4,0s0.7,0.1,1,0.1c0.3,0.1,0.5,0.1,0.7,0.2s0.4,0.2,0.6,0.3
			c0.6,0.3,1.1,0.8,1.4,1.4c0.3,0.6,0.5,1.2,0.5,2C175.1,62.6,174.9,63.4,174.5,64z M171.7,60.4c-0.3-0.3-0.7-0.5-1.3-0.5h-1.7v3.9
			h1.4c0.5,0,0.9,0,1.1-0.1s0.4-0.3,0.6-0.5c0.1-0.2,0.2-0.4,0.2-0.6c0-0.2,0.1-0.5,0.1-0.8C172.2,61.2,172,60.7,171.7,60.4z"/>
		<path style="fill:#FFFFFF;" d="M180.6,63.2c-0.6,0-1.1,0.3-1.5,0.8v6.8h-2.5v-6.4c0-0.7,0-1.2-0.1-1.7s-0.2-0.9-0.3-1.1l2.3-0.6
			c0.2,0.4,0.4,0.8,0.4,1.4c0.3-0.4,0.6-0.7,1-1s0.8-0.4,1.3-0.4c0.2,0,0.3,0,0.5,0c0.1,0,0.3,0.1,0.5,0.2l-0.7,2.2
			C181.1,63.2,180.9,63.2,180.6,63.2z"/>
		<path style="fill:#FFFFFF;" d="M190.5,68c-0.2,0.6-0.5,1.1-0.9,1.6c-0.4,0.4-0.8,0.7-1.3,1c-0.5,0.2-1.1,0.4-1.9,0.4
			c-0.6,0-1.2-0.1-1.8-0.4c-0.5-0.2-1-0.6-1.4-1s-0.7-1-0.9-1.6s-0.3-1.3-0.3-2c0-0.8,0.1-1.4,0.3-2.1c0.2-0.6,0.5-1.2,0.9-1.6
			c0.4-0.4,0.8-0.8,1.4-1c0.5-0.2,1.1-0.4,1.8-0.4c1.4,0,2.4,0.5,3.3,1.4c0.4,0.5,0.7,1,0.8,1.5s0.3,1.2,0.3,2
			C190.8,66.7,190.7,67.5,190.5,68z M187.6,63.3c-0.3-0.3-0.6-0.5-1.1-0.5c-0.3,0-0.6,0.1-0.8,0.3s-0.4,0.4-0.5,0.7
			c-0.1,0.2-0.2,0.5-0.2,0.9s-0.1,0.8-0.1,1.2c0,1.1,0.1,1.9,0.3,2.4c0.1,0.3,0.3,0.5,0.5,0.6s0.5,0.2,0.7,0.2c0.6,0,1-0.3,1.2-0.8
			s0.4-1.3,0.4-2.5C188.1,64.6,187.9,63.8,187.6,63.3z"/>
		<path style="fill:#FFFFFF;" d="M201.2,62.8c-0.3,0.1-0.6,0.2-0.9,0.2c-0.1,0-0.2,0-0.4,0c-0.1,0-0.2,0-0.3,0
			c0.2,0.2,0.3,0.5,0.4,0.7s0.1,0.5,0.1,0.9s-0.1,0.8-0.3,1.1c-0.2,0.4-0.4,0.7-0.7,0.9c-0.3,0.3-0.7,0.4-1.1,0.6
			c-0.4,0.1-0.9,0.2-1.4,0.2h-0.3h-0.1c-0.3,0.1-0.6,0.3-0.7,0.4c-0.2,0.1-0.3,0.2-0.3,0.4c0,0.2,0.1,0.2,0.4,0.2h1.3
			c0.7,0,1.3,0.1,1.7,0.2s0.8,0.3,1.2,0.7c0.5,0.5,0.8,1.2,0.8,2s-0.3,1.4-0.8,2c-0.4,0.5-1,0.8-1.6,1c-0.7,0.2-1.4,0.3-2.1,0.3
			c-0.7,0-1.4-0.1-2-0.2s-1.2-0.4-1.6-0.8c-0.5-0.5-0.8-1.1-0.8-1.7c0-0.3,0-0.5,0.1-0.6c0-0.1,0.1-0.3,0.2-0.4h2.3
			c0,0.1-0.1,0.2-0.1,0.3s0,0.2,0,0.3c0,0.8,0.6,1.2,1.8,1.2c0.3,0,0.6,0,0.9-0.1c0.3,0,0.5-0.1,0.7-0.3c0.2-0.1,0.3-0.3,0.5-0.4
			c0.1-0.2,0.2-0.4,0.2-0.6c0-0.4-0.2-0.7-0.5-0.9c-0.3-0.2-0.8-0.2-1.3-0.3h-1.1c-1.1,0-1.9-0.1-2.3-0.3c-0.2-0.1-0.4-0.2-0.5-0.5
			c-0.1-0.2-0.2-0.5-0.2-0.8c0-0.1,0-0.3,0.1-0.5c0-0.2,0.1-0.3,0.2-0.4c0.1-0.1,0.3-0.3,0.5-0.4s0.5-0.2,0.9-0.3
			c-1.4-0.4-2.1-1.3-2.1-2.7c0-0.5,0.1-0.9,0.3-1.3c0.2-0.4,0.5-0.7,0.8-1c0.4-0.3,0.8-0.5,1.3-0.7s1.1-0.2,1.7-0.2
			c0.3,0,0.5,0,0.8,0.1c0.3,0,0.6,0.1,0.9,0.2c0.3,0.1,0.5,0.1,0.7,0.2c0.2,0,0.4,0.1,0.5,0.1c0.4,0,0.7-0.1,1-0.2
			c0.3-0.1,0.7-0.3,0.9-0.6l1.1,1.6C201.8,62.5,201.5,62.6,201.2,62.8z M197.1,63.2c-0.3-0.2-0.6-0.4-1.1-0.4s-0.8,0.1-1.1,0.4
			s-0.4,0.6-0.4,1c0,0.5,0.1,0.8,0.4,1s0.6,0.3,1.1,0.3c1,0,1.5-0.5,1.5-1.4C197.5,63.8,197.4,63.5,197.1,63.2z"/>
		<path style="fill:#FFFFFF;" d="M207.1,63.2c-0.6,0-1.1,0.3-1.5,0.8v6.8H203v-6.4c0-0.7,0-1.2-0.1-1.7s-0.2-0.9-0.3-1.1l2.3-0.6
			c0.2,0.4,0.4,0.8,0.4,1.4c0.3-0.4,0.6-0.7,1-1s0.8-0.4,1.3-0.4c0.2,0,0.3,0,0.5,0c0.1,0,0.3,0.1,0.5,0.2l-0.7,2.2
			C207.6,63.2,207.3,63.2,207.1,63.2z"/>
		<path style="fill:#FFFFFF;" d="M215.3,70.8c-0.2-0.2-0.4-0.4-0.6-0.7c-0.1,0.1-0.2,0.2-0.3,0.3c-0.1,0.1-0.2,0.2-0.3,0.2
			c-0.5,0.4-1.1,0.5-1.9,0.5c-1.1,0-1.9-0.3-2.5-0.8s-0.8-1.3-0.8-2.2c0-1.1,0.4-2,1.1-2.5c0.8-0.5,1.9-0.8,3.5-0.8h0.3
			c0.1,0,0.2,0,0.3,0v-0.4c0-0.5-0.1-0.9-0.2-1.1S213.4,63,213,63s-0.8,0.1-1.3,0.3s-1,0.5-1.5,0.8l-1.1-1.8
			c0.3-0.2,0.5-0.3,0.7-0.4s0.5-0.2,0.8-0.4c0.5-0.2,0.9-0.3,1.3-0.4c0.4-0.1,0.8-0.1,1.3-0.1c0.8,0,1.5,0.1,2,0.4s0.9,0.7,1.1,1.2
			c0.1,0.1,0.1,0.3,0.1,0.4c0,0.2,0,0.4,0,0.6v0.7l-0.1,3.2c0,0.3,0,0.5,0,0.7s0,0.4,0.1,0.5c0.1,0.2,0.2,0.3,0.3,0.5
			c0.1,0.1,0.3,0.3,0.5,0.5l-1.3,1.5C215.8,71.1,215.5,71,215.3,70.8z M212.2,66.9c-0.3,0.2-0.5,0.6-0.5,1.1c0,0.4,0.1,0.7,0.3,0.9
			c0.2,0.2,0.5,0.3,0.8,0.3c0.5,0,0.9-0.2,1.3-0.6v-2H214C213.1,66.6,212.5,66.7,212.2,66.9z"/>
		<path style="fill:#FFFFFF;" d="M228.6,64.4c0-0.6,0-0.9-0.1-1.1c-0.1-0.2-0.3-0.3-0.6-0.3c-0.2,0-0.5,0.1-0.8,0.2
			c-0.3,0.1-0.6,0.3-0.9,0.6v6.9h-2.4v-6.2c0-0.6-0.1-1-0.2-1.2c-0.1-0.2-0.3-0.3-0.7-0.3c-0.2,0-0.5,0.1-0.8,0.2
			c-0.3,0.1-0.6,0.3-0.9,0.6v7h-2.4v-6.7c0-0.4,0-0.7,0-0.9c0-0.3,0-0.5-0.1-0.7c0-0.2-0.1-0.4-0.1-0.5s-0.1-0.3-0.2-0.4l2.3-0.6
			c0.1,0.1,0.2,0.3,0.2,0.4c0,0.1,0.1,0.3,0.1,0.6c0.7-0.7,1.4-1,2.3-1c0.8,0,1.4,0.3,2,0.8c0.1,0.1,0.1,0.1,0.2,0.2
			s0.1,0.2,0.2,0.3c0.4-0.5,0.9-0.8,1.3-1c0.4-0.2,0.9-0.3,1.4-0.3c0.4,0,0.7,0.1,1.1,0.2s0.6,0.3,0.8,0.4c0.3,0.2,0.5,0.5,0.6,0.8
			c0.1,0.4,0.1,0.9,0.1,1.5v6.8h-2.4L228.6,64.4L228.6,64.4z"/>
	</g>
</g>
<g>
	<polyline style="fill:#FFFFFF;" points="30.796,38.561 39.477,38.561 39.382,39.881 35.83,39.881 35.83,51.661 34.308,51.661 
		34.308,39.881 30.796,39.881 30.796,38.561 	"/>
	<path style="fill:#FFFFFF;" d="M39.427,42.304l1.489-0.4c0,0,0.362,0.745,0.306,1.547c0.687-0.975,1.699-1.585,2.673-1.585
		c0.248,0,0.516,0.095,0.516,0.095l-0.611,1.623c-0.095-0.038-0.268-0.076-0.42-0.076c-0.572,0-1.145,0.25-1.585,0.687
		c-0.439,0.44-0.554,0.726-0.554,1.509v5.957h-1.49v-7.331C39.751,42.935,39.427,42.304,39.427,42.304"/>
	<path style="fill:#FFFFFF;" d="M50.139,49.313c-0.44,0.898-1.337,1.49-2.311,1.49c-1.089,0-1.642-0.611-1.642-1.738
		c0-1.451,0.859-2.272,3.264-2.272c0.268,0,0.497,0.019,0.745,0.038L50.139,49.313 M45.613,44.252
		c0.61-0.553,1.966-1.127,3.035-1.127c0.592,0,0.974,0.172,1.28,0.516c0.267,0.305,0.304,0.65,0.304,1.49v0.667
		c0,0-0.267-0.019-0.667-0.019c-3.19,0-5.042,1.261-5.042,3.418c0,1.28,0.707,2.711,3.055,2.711c1.088,0,1.834-0.362,2.75-1.279
		c0.172,0.67,0.648,1.184,1.298,1.395l0.764-1.07c-0.706-0.382-0.803-0.783-0.764-2.329l0.076-3.134c0.019-0.858,0-1.584-0.21-2.099
		c-0.401-0.974-1.318-1.49-2.636-1.49c-1.375,0-2.729,0.439-3.99,1.28L45.613,44.252z"/>
	<path style="fill:#FFFFFF;" d="M53.625,42.324l1.451-0.4c0,0,0.344,0.706,0.344,1.489c0.993-0.992,1.986-1.47,2.998-1.47
		c1.031,0,1.948,0.554,2.33,1.394c0.152,0.343,0.229,0.725,0.229,1.106v7.217h-1.508v-6.434c0-1.012-0.076-1.261-0.344-1.585
		c-0.209-0.248-0.61-0.401-1.05-0.401c-0.763,0-1.948,0.611-2.635,1.336v7.084h-1.451v-7.331
		C53.989,42.973,53.625,42.324,53.625,42.324"/>
	<path style="fill:#FFFFFF;" d="M68.93,42.554l-0.554,1.106c-0.839-0.401-1.545-0.687-2.387-0.687c-1.087,0-1.795,0.631-1.795,1.566
		c0,0.726,0.364,1.165,1.376,1.375l1.261,0.267c1.716,0.364,2.539,1.241,2.539,2.655c0,1.852-1.453,3.112-3.59,3.112
		c-1.203,0-2.521-0.362-3.494-0.955l0.573-1.107c0.973,0.593,1.967,0.898,3.017,0.898c1.164,0,1.928-0.63,1.928-1.643
		c0-0.858-0.477-1.336-1.566-1.565l-1.183-0.249c-1.566-0.325-2.406-1.298-2.406-2.616c0-1.72,1.394-2.921,3.38-2.921
		C67.019,41.789,68.128,42.095,68.93,42.554"/>
	<path style="fill:#FFFFFF;" d="M73.731,38.392v8.725c0,0.822,0.076,1.299,0.229,1.585c0.306,0.592,0.936,0.917,1.814,0.917
		c1.164,0,1.91-0.573,2.024-1.547c0.04-0.287,0.04-0.478,0.04-1.184v-8.497h2.711v8.935c0,1.26-0.019,1.509-0.211,2.082
		c-0.343,1.051-1.642,2.501-4.505,2.501c-2.025,0-3.514-0.61-4.259-1.775C71.134,49.447,71,48.912,71,47.633v-9.242H73.731"/>
	<path style="fill:#FFFFFF;" d="M84.673,41.637c0.229,0.401,0.363,0.82,0.363,1.222c0.381-0.267,0.707-0.497,1.126-0.726
		c0.516-0.266,1.184-0.42,1.757-0.42c1.088,0,2.042,0.573,2.348,1.413c0.134,0.364,0.191,0.784,0.191,1.394v7.141h-2.521v-6.358
		c0-1.108-0.19-1.432-0.859-1.432c-0.517,0-1.185,0.344-1.777,0.878v6.911h-2.559v-7.084c0-0.84-0.114-1.642-0.344-2.291
		L84.673,41.637"/>
	<path style="fill:#FFFFFF;" d="M95.214,41.657v10.004h-2.558v-9.604L95.214,41.657 M95.52,39.193c0,0.877-0.707,1.585-1.586,1.585
		c-0.859,0-1.566-0.707-1.566-1.585c0-0.879,0.726-1.586,1.605-1.586C94.832,37.607,95.52,38.314,95.52,39.193z"/>
	<path style="fill:#FFFFFF;" d="M101.209,43.584c0.458,0,0.859,0.191,1.108,0.517c0.344,0.439,0.515,1.298,0.515,2.616
		c0,2.309-0.477,3.304-1.585,3.304c-0.496,0-1.069-0.269-1.297-0.802c-0.211-0.497-0.325-1.337-0.325-2.464
		c0-0.974,0.094-1.661,0.268-2.177C100.102,43.966,100.599,43.584,101.209,43.584 M101.171,41.695c-2.634,0-4.391,2.042-4.391,5.117
		c0,3.074,1.738,5.059,4.391,5.059c1.509,0,2.483-0.515,3.228-1.355c0.839-0.953,1.22-2.1,1.22-3.781
		c0-1.585-0.343-2.654-1.125-3.571C103.654,42.172,102.565,41.695,101.171,41.695z"/>
	<path style="fill:#FFFFFF;" d="M109.114,41.637c0.229,0.401,0.363,0.82,0.363,1.222c0.382-0.267,0.707-0.497,1.127-0.726
		c0.516-0.266,1.185-0.42,1.758-0.42c1.088,0,2.043,0.573,2.348,1.413c0.134,0.364,0.191,0.784,0.191,1.394v7.141h-2.521v-6.358
		c0-1.108-0.19-1.432-0.859-1.432c-0.517,0-1.184,0.344-1.776,0.878v6.911h-2.559v-7.084c0-0.84-0.113-1.642-0.343-2.291
		L109.114,41.637"/>
	<path style="fill:#FFFFFF;" d="M119.548,50.796c-0.085,0.197-0.202,0.367-0.35,0.51c-0.148,0.144-0.319,0.255-0.514,0.336
		c-0.195,0.081-0.403,0.122-0.623,0.122c-0.22,0-0.428-0.04-0.623-0.122c-0.195-0.081-0.367-0.193-0.514-0.336
		c-0.147-0.143-0.264-0.313-0.35-0.51c-0.086-0.197-0.128-0.41-0.128-0.642c0-0.231,0.042-0.446,0.128-0.642
		c0.085-0.197,0.202-0.367,0.35-0.51c0.147-0.144,0.319-0.256,0.514-0.339c0.195-0.082,0.403-0.124,0.623-0.124
		c0.22,0,0.428,0.042,0.623,0.124c0.195,0.083,0.366,0.196,0.514,0.339c0.148,0.143,0.265,0.314,0.35,0.51
		c0.085,0.196,0.128,0.411,0.128,0.642C119.676,50.386,119.633,50.599,119.548,50.796 M119.285,49.607
		c-0.07-0.168-0.164-0.313-0.285-0.436c-0.12-0.123-0.26-0.22-0.421-0.291c-0.161-0.071-0.333-0.107-0.519-0.107
		c-0.185,0-0.359,0.036-0.521,0.107c-0.162,0.071-0.303,0.168-0.421,0.291c-0.118,0.123-0.212,0.268-0.282,0.436
		c-0.07,0.168-0.104,0.351-0.104,0.547c0,0.194,0.034,0.376,0.104,0.545c0.069,0.169,0.163,0.316,0.282,0.439
		c0.119,0.123,0.259,0.22,0.421,0.291c0.162,0.071,0.336,0.106,0.521,0.106c0.186,0,0.358-0.035,0.519-0.106
		c0.161-0.071,0.301-0.168,0.421-0.291c0.12-0.123,0.215-0.269,0.285-0.439c0.069-0.169,0.104-0.351,0.104-0.545
		C119.389,49.958,119.354,49.775,119.285,49.607z M118.367,50.916c-0.019-0.033-0.046-0.08-0.081-0.141
		c-0.034-0.058-0.064-0.107-0.088-0.147c-0.025-0.041-0.048-0.077-0.07-0.109c-0.022-0.031-0.045-0.062-0.069-0.093
		c-0.025-0.03-0.054-0.063-0.085-0.098c-0.023-0.026-0.047-0.045-0.07-0.059c-0.023-0.013-0.054-0.021-0.091-0.024v0.795h-0.25
		v-1.794h0.503c0.106,0,0.193,0.012,0.259,0.035c0.067,0.023,0.122,0.055,0.166,0.095c0.04,0.038,0.077,0.087,0.111,0.148
		c0.033,0.061,0.049,0.134,0.049,0.221c0,0.07-0.01,0.134-0.033,0.195c-0.021,0.061-0.053,0.113-0.095,0.158
		c-0.042,0.045-0.092,0.081-0.152,0.108c-0.059,0.026-0.127,0.037-0.202,0.034c0.04,0.033,0.073,0.062,0.098,0.091
		c0.024,0.027,0.044,0.052,0.058,0.076c0.02,0.023,0.043,0.053,0.068,0.091c0.024,0.038,0.052,0.081,0.084,0.13
		c0.021,0.032,0.044,0.069,0.07,0.11c0.026,0.042,0.052,0.083,0.078,0.122c0.026,0.038,0.05,0.075,0.07,0.108
		c0.02,0.034,0.034,0.057,0.044,0.072h-0.304C118.408,50.991,118.385,50.95,118.367,50.916z M118.341,49.583
		c-0.031-0.046-0.07-0.08-0.12-0.1c-0.061-0.023-0.135-0.034-0.222-0.034h-0.187v0.625h0.174c0.081,0,0.145-0.006,0.193-0.02
		c0.048-0.013,0.088-0.034,0.119-0.063c0.058-0.058,0.087-0.139,0.087-0.243C118.386,49.685,118.371,49.629,118.341,49.583z"/>
</g>
<polyline style="fill:#B7B7B7;" points="4.07,32.731 4.07,38.312 9.459,39.944 9.459,53.897 17.481,56.266 17.481,42.314 
	23.32,44.023 23.32,38.442 4.07,32.731 "/>
<path style="fill:#FFFFFF;" d="M1.761,40.958c0-0.276,0.224-0.656,0.499-0.85c0.276-0.194,0.499-0.127,0.499,0.15
	c0,0.275-0.223,0.656-0.499,0.849C1.985,41.3,1.761,41.234,1.761,40.958"/>
<path style="fill:#FFFFFF;" d="M4.563,38.996c0-0.276,0.224-0.657,0.5-0.85c0.275-0.194,0.499-0.127,0.499,0.15
	c0,0.275-0.224,0.655-0.499,0.849C4.787,39.339,4.563,39.271,4.563,38.996"/>
<path style="fill:#FFFFFF;" d="M7.366,37.033c0-0.276,0.224-0.656,0.499-0.85c0.276-0.194,0.499-0.126,0.499,0.15
	c0,0.275-0.223,0.656-0.499,0.849C7.59,37.376,7.366,37.31,7.366,37.033"/>
<path style="fill:#FFFFFF;" d="M10.168,35.071c0-0.276,0.224-0.656,0.5-0.85c0.275-0.193,0.499-0.127,0.499,0.15
	c0,0.275-0.224,0.656-0.499,0.85C10.392,35.413,10.168,35.347,10.168,35.071"/>
<path style="fill:#FFFFFF;" d="M12.971,33.109c0-0.276,0.224-0.657,0.499-0.851c0.276-0.194,0.499-0.126,0.499,0.151
	c0,0.275-0.223,0.655-0.499,0.848C13.195,33.451,12.971,33.385,12.971,33.109"/>
<path style="fill:#FFFFFF;" d="M15.774,31.146c0-0.275,0.224-0.656,0.5-0.85c0.275-0.193,0.499-0.126,0.499,0.15
	c0,0.276-0.224,0.656-0.499,0.85C15.997,31.488,15.774,31.422,15.774,31.146"/>
<path style="fill:#FFFFFF;" d="M18.577,29.184c0-0.276,0.224-0.656,0.499-0.85c0.276-0.194,0.499-0.127,0.499,0.15
	c0,0.275-0.223,0.656-0.499,0.85C18.8,29.526,18.577,29.459,18.577,29.184"/>
<path style="fill:#FFFFFF;" d="M21.379,27.221c0-0.275,0.224-0.657,0.5-0.851c0.275-0.193,0.499-0.126,0.499,0.151
	c0,0.275-0.224,0.655-0.499,0.849C21.602,27.564,21.379,27.497,21.379,27.221"/>
<path style="fill:#FFFFFF;" d="M24.181,25.259c0-0.276,0.225-0.656,0.5-0.85c0.276-0.194,0.499-0.127,0.499,0.15
	c0,0.275-0.223,0.656-0.499,0.85C24.406,25.601,24.181,25.535,24.181,25.259"/>
<path style="fill:#FFFFFF;" d="M1.761,43.749c0-0.275,0.224-0.657,0.499-0.851c0.276-0.193,0.499-0.126,0.499,0.15
	c0,0.276-0.223,0.656-0.499,0.85C1.985,44.092,1.761,44.024,1.761,43.749"/>
<path style="fill:#FFFFFF;" d="M24.181,28.049c0-0.276,0.225-0.657,0.5-0.85c0.276-0.194,0.499-0.127,0.499,0.15
	c0,0.275-0.223,0.655-0.499,0.849C24.406,28.392,24.181,28.325,24.181,28.049"/>
<path style="fill:#FFFFFF;" d="M1.761,46.539c0-0.276,0.224-0.656,0.499-0.85c0.276-0.194,0.499-0.126,0.499,0.15
	c0,0.275-0.223,0.656-0.499,0.848C1.985,46.881,1.761,46.815,1.761,46.539"/>
<path style="fill:#FFFFFF;" d="M24.181,30.84c0-0.276,0.225-0.656,0.5-0.85c0.276-0.194,0.499-0.126,0.499,0.15
	c0,0.275-0.223,0.656-0.499,0.85C24.406,31.182,24.181,31.116,24.181,30.84"/>
<path style="fill:#FFFFFF;" d="M1.761,49.329c0-0.276,0.224-0.656,0.499-0.85c0.276-0.192,0.499-0.126,0.499,0.151
	c0,0.275-0.223,0.655-0.499,0.849C1.985,49.672,1.761,49.605,1.761,49.329"/>
<path style="fill:#FFFFFF;" d="M4.563,47.367c0-0.276,0.224-0.656,0.5-0.85c0.275-0.194,0.499-0.127,0.499,0.15
	c0,0.275-0.224,0.656-0.499,0.85C4.787,47.709,4.563,47.643,4.563,47.367"/>
<path style="fill:#FFFFFF;" d="M7.366,45.405c0-0.275,0.224-0.657,0.499-0.851c0.276-0.193,0.499-0.126,0.499,0.151
	c0,0.276-0.223,0.655-0.499,0.849C7.59,45.748,7.366,45.68,7.366,45.405"/>
<path style="fill:#FFFFFF;" d="M18.577,37.554c0-0.275,0.224-0.656,0.499-0.85c0.276-0.193,0.499-0.126,0.499,0.15
	c0,0.276-0.223,0.656-0.499,0.85C18.8,37.898,18.577,37.831,18.577,37.554"/>
<path style="fill:#FFFFFF;" d="M21.379,35.593c0-0.276,0.224-0.656,0.5-0.85c0.275-0.194,0.499-0.127,0.499,0.15
	c0,0.275-0.224,0.656-0.499,0.849C21.602,35.935,21.379,35.868,21.379,35.593"/>
<path style="fill:#FFFFFF;" d="M24.181,33.63c0-0.275,0.225-0.657,0.5-0.851c0.276-0.193,0.499-0.126,0.499,0.151
	c0,0.275-0.223,0.656-0.499,0.849C24.406,33.973,24.181,33.906,24.181,33.63"/>
<path style="fill:#FFFFFF;" d="M1.761,52.12c0-0.276,0.224-0.656,0.499-0.85c0.276-0.194,0.499-0.127,0.499,0.15
	c0,0.275-0.223,0.655-0.499,0.848C1.985,52.462,1.761,52.397,1.761,52.12"/>
<path style="fill:#FFFFFF;" d="M4.563,50.158c0-0.277,0.224-0.656,0.5-0.851c0.275-0.193,0.499-0.126,0.499,0.15
	c0,0.276-0.224,0.656-0.499,0.85C4.787,50.5,4.563,50.433,4.563,50.158"/>
<path style="fill:#FFFFFF;" d="M7.366,48.196c0-0.277,0.224-0.657,0.499-0.851c0.276-0.195,0.499-0.127,0.499,0.15
	c0,0.275-0.223,0.656-0.499,0.85C7.59,48.537,7.366,48.472,7.366,48.196"/>
<path style="fill:#FFFFFF;" d="M18.577,40.346c0-0.276,0.224-0.656,0.499-0.851c0.276-0.194,0.499-0.126,0.499,0.151
	c0,0.275-0.223,0.656-0.499,0.848C18.8,40.688,18.577,40.621,18.577,40.346"/>
<path style="fill:#FFFFFF;" d="M21.379,38.382c0-0.276,0.224-0.656,0.5-0.85c0.275-0.193,0.499-0.126,0.499,0.15
	c0,0.276-0.224,0.656-0.499,0.85C21.602,38.726,21.379,38.659,21.379,38.382"/>
<path style="fill:#FFFFFF;" d="M24.181,36.421c0-0.276,0.225-0.656,0.5-0.85c0.276-0.194,0.499-0.127,0.499,0.15
	c0,0.275-0.223,0.656-0.499,0.85C24.406,36.763,24.181,36.697,24.181,36.421"/>
<path style="fill:#FFFFFF;" d="M1.761,54.911c0-0.275,0.224-0.657,0.499-0.851c0.276-0.193,0.499-0.127,0.499,0.151
	c0,0.275-0.223,0.656-0.499,0.849C1.985,55.253,1.761,55.186,1.761,54.911"/>
<path style="fill:#FFFFFF;" d="M4.563,52.948c0-0.276,0.224-0.657,0.5-0.85c0.275-0.194,0.499-0.127,0.499,0.151
	c0,0.275-0.224,0.655-0.499,0.849C4.787,53.29,4.563,53.224,4.563,52.948"/>
<path style="fill:#FFFFFF;" d="M7.366,50.985c0-0.275,0.224-0.657,0.499-0.851c0.276-0.192,0.499-0.126,0.499,0.151
	c0,0.275-0.223,0.656-0.499,0.849C7.59,51.328,7.366,51.261,7.366,50.985"/>
<path style="fill:#FFFFFF;" d="M18.577,43.135c0-0.275,0.224-0.656,0.499-0.85c0.276-0.193,0.499-0.127,0.499,0.15
	c0,0.275-0.223,0.656-0.499,0.85C18.8,43.478,18.577,43.412,18.577,43.135"/>
<path style="fill:#FFFFFF;" d="M21.379,41.174c0-0.276,0.224-0.656,0.5-0.85c0.275-0.195,0.499-0.127,0.499,0.15
	c0,0.275-0.224,0.655-0.499,0.849C21.602,41.516,21.379,41.449,21.379,41.174"/>
<path style="fill:#FFFFFF;" d="M24.181,39.211c0-0.275,0.225-0.657,0.5-0.851c0.276-0.193,0.499-0.126,0.499,0.151
	c0,0.275-0.223,0.655-0.499,0.849C24.406,39.554,24.181,39.487,24.181,39.211"/>
<path style="fill:#FFFFFF;" d="M1.761,57.701c0-0.276,0.224-0.656,0.499-0.851c0.276-0.193,0.499-0.125,0.499,0.151
	c0,0.275-0.223,0.656-0.499,0.849C1.985,58.043,1.761,57.977,1.761,57.701"/>
<path style="fill:#FFFFFF;" d="M4.563,55.738c0-0.275,0.224-0.657,0.5-0.851c0.275-0.193,0.499-0.126,0.499,0.151
	c0,0.275-0.224,0.656-0.499,0.849C4.787,56.081,4.563,56.014,4.563,55.738"/>
<path style="fill:#FFFFFF;" d="M7.366,53.776c0-0.276,0.224-0.656,0.499-0.851c0.276-0.193,0.499-0.125,0.499,0.151
	c0,0.275-0.223,0.656-0.499,0.85C7.59,54.118,7.366,54.052,7.366,53.776"/>
<path style="fill:#FFFFFF;" d="M18.577,45.927c0-0.276,0.224-0.657,0.499-0.851c0.276-0.194,0.499-0.126,0.499,0.151
	c0,0.275-0.223,0.655-0.499,0.849C18.8,46.269,18.577,46.202,18.577,45.927"/>
<path style="fill:#FFFFFF;" d="M21.379,43.963c0-0.275,0.224-0.656,0.5-0.85c0.275-0.193,0.499-0.126,0.499,0.15
	c0,0.275-0.224,0.656-0.499,0.85C21.602,44.306,21.379,44.24,21.379,43.963"/>
<path style="fill:#FFFFFF;" d="M24.181,42.002c0-0.276,0.225-0.656,0.5-0.85c0.276-0.195,0.499-0.127,0.499,0.15
	c0,0.275-0.223,0.656-0.499,0.849C24.406,42.344,24.181,42.277,24.181,42.002"/>
<path style="fill:#FFFFFF;" d="M2.347,60.491c0-0.275,0.224-0.656,0.499-0.85c0.276-0.193,0.499-0.126,0.499,0.15
	c0,0.275-0.223,0.655-0.499,0.85C2.571,60.833,2.347,60.767,2.347,60.491"/>
<path style="fill:#FFFFFF;" d="M4.563,58.529c0-0.276,0.224-0.657,0.5-0.85c0.275-0.195,0.499-0.127,0.499,0.15
	c0,0.275-0.224,0.656-0.499,0.849C4.787,58.871,4.563,58.805,4.563,58.529"/>
<path style="fill:#FFFFFF;" d="M7.366,56.566c0-0.275,0.224-0.657,0.499-0.851c0.276-0.193,0.499-0.126,0.499,0.151
	c0,0.275-0.223,0.656-0.499,0.849C7.59,56.908,7.366,56.843,7.366,56.566"/>
<path style="fill:#FFFFFF;" d="M18.577,48.717c0-0.275,0.224-0.657,0.499-0.851c0.276-0.193,0.499-0.127,0.499,0.151
	c0,0.275-0.223,0.655-0.499,0.849C18.8,49.059,18.577,48.993,18.577,48.717"/>
<path style="fill:#FFFFFF;" d="M21.379,46.754c0-0.276,0.224-0.657,0.5-0.851c0.275-0.193,0.499-0.126,0.499,0.151
	c0,0.275-0.224,0.655-0.499,0.849C21.602,47.097,21.379,47.03,21.379,46.754"/>
<path style="fill:#FFFFFF;" d="M24.181,44.792c0-0.276,0.225-0.657,0.5-0.851c0.276-0.193,0.499-0.126,0.499,0.151
	c0,0.275-0.223,0.655-0.499,0.849C24.406,45.135,24.181,45.067,24.181,44.792"/>
<path style="fill:#FFFFFF;" d="M2.347,63.282c0-0.276,0.224-0.656,0.499-0.851c0.276-0.194,0.499-0.126,0.499,0.151
	c0,0.275-0.223,0.656-0.499,0.849C2.571,63.624,2.347,63.558,2.347,63.282"/>
<path style="fill:#FFFFFF;" d="M5.149,61.319c0-0.276,0.224-0.656,0.5-0.851c0.275-0.192,0.499-0.126,0.499,0.151
	c0,0.275-0.224,0.655-0.499,0.849C5.373,61.662,5.149,61.595,5.149,61.319"/>
<path style="fill:#FFFFFF;" d="M7.366,59.357c0-0.276,0.224-0.656,0.499-0.85c0.276-0.194,0.499-0.127,0.499,0.15
	c0,0.275-0.223,0.656-0.499,0.849C7.59,59.7,7.366,59.632,7.366,59.357"/>
<path style="fill:#FFFFFF;" d="M10.168,57.394c0-0.275,0.224-0.656,0.5-0.85c0.275-0.193,0.499-0.127,0.499,0.15
	c0,0.275-0.224,0.655-0.499,0.849C10.392,57.737,10.168,57.67,10.168,57.394"/>
<path style="fill:#FFFFFF;" d="M12.971,55.433c0-0.276,0.224-0.657,0.499-0.851c0.276-0.194,0.499-0.127,0.499,0.151
	c0,0.275-0.223,0.655-0.499,0.849C13.195,55.775,12.971,55.708,12.971,55.433"/>
<path style="fill:#FFFFFF;" d="M15.774,53.469c0-0.275,0.224-0.656,0.5-0.85c0.275-0.193,0.499-0.127,0.499,0.151
	c0,0.275-0.224,0.654-0.499,0.849C15.997,53.812,15.774,53.745,15.774,53.469"/>
<path style="fill:#FFFFFF;" d="M18.577,51.508c0-0.276,0.224-0.657,0.499-0.851c0.276-0.194,0.499-0.126,0.499,0.151
	c0,0.275-0.223,0.655-0.499,0.849C18.8,51.85,18.577,51.783,18.577,51.508"/>
<path style="fill:#FFFFFF;" d="M21.379,49.544c0-0.275,0.224-0.656,0.5-0.85c0.275-0.193,0.499-0.126,0.499,0.151
	c0,0.275-0.224,0.655-0.499,0.849C21.602,49.887,21.379,49.82,21.379,49.544"/>
<path style="fill:#FFFFFF;" d="M24.181,47.581c0-0.275,0.225-0.656,0.5-0.85c0.276-0.193,0.499-0.126,0.499,0.151
	c0,0.275-0.223,0.655-0.499,0.85C24.406,47.924,24.181,47.859,24.181,47.581"/>
<path style="fill:#FFFFFF;" d="M4.108,42.106c0-0.528,0.427-1.256,0.955-1.626c0.528-0.37,0.955-0.243,0.955,0.284
	c0,0.53-0.427,1.258-0.955,1.627C4.535,42.761,4.108,42.635,4.108,42.106"/>
<path style="fill:#FFFFFF;" d="M20.923,30.332c0-0.528,0.428-1.256,0.955-1.626c0.528-0.371,0.955-0.243,0.955,0.284
	c0,0.53-0.428,1.258-0.955,1.627C21.351,30.986,20.923,30.861,20.923,30.332"/>
<path style="fill:#FFFFFF;" d="M18.121,32.293c0-0.527,0.428-1.256,0.955-1.626c0.529-0.37,0.955-0.242,0.955,0.286
	c0,0.528-0.426,1.257-0.955,1.626C18.549,32.949,18.121,32.823,18.121,32.293"/>
<path style="fill:#FFFFFF;" d="M15.318,34.256c0-0.527,0.428-1.256,0.956-1.626c0.528-0.37,0.955-0.242,0.955,0.285
	c0,0.529-0.427,1.258-0.955,1.626C15.746,34.912,15.318,34.786,15.318,34.256"/>
<path style="fill:#FFFFFF;" d="M12.515,36.219c0-0.527,0.427-1.256,0.955-1.626c0.528-0.37,0.954-0.243,0.954,0.286
	c0,0.528-0.426,1.256-0.954,1.626C12.943,36.874,12.515,36.747,12.515,36.219"/>
<path style="fill:#FFFFFF;" d="M9.712,38.181c0-0.528,0.428-1.256,0.955-1.626c0.528-0.37,0.955-0.242,0.955,0.285
	c0,0.529-0.427,1.258-0.955,1.626C10.14,38.836,9.712,38.71,9.712,38.181"/>
<path style="fill:#FFFFFF;" d="M6.91,40.144c0-0.527,0.427-1.257,0.956-1.627c0.528-0.371,0.954-0.242,0.954,0.286
	c0,0.528-0.426,1.257-0.954,1.627C7.337,40.798,6.91,40.672,6.91,40.144"/>
<path style="fill:#FFFFFF;" d="M4.108,44.896c0-0.526,0.427-1.256,0.955-1.626c0.528-0.371,0.955-0.242,0.955,0.286
	c0,0.528-0.427,1.257-0.955,1.626C4.535,45.552,4.108,45.425,4.108,44.896"/>
<path style="fill:#FFFFFF;" d="M20.923,33.122c0-0.528,0.428-1.257,0.955-1.627c0.528-0.37,0.955-0.242,0.955,0.286
	c0,0.528-0.428,1.257-0.955,1.626C21.351,33.777,20.923,33.651,20.923,33.122"/>
<path style="fill:#FFFFFF;" d="M18.121,35.085c0-0.528,0.428-1.256,0.955-1.627c0.529-0.37,0.955-0.242,0.955,0.285
	c0,0.529-0.426,1.258-0.955,1.627C18.549,35.739,18.121,35.614,18.121,35.085"/>
<path style="fill:#FFFFFF;" d="M15.318,37.047c0-0.528,0.428-1.257,0.956-1.627c0.528-0.37,0.955-0.243,0.955,0.286
	c0,0.528-0.427,1.257-0.955,1.626C15.746,37.702,15.318,37.575,15.318,37.047"/>
<path style="fill:#FFFFFF;" d="M12.515,39.009c0-0.528,0.427-1.256,0.955-1.626c0.528-0.37,0.954-0.242,0.954,0.285
	c0,0.529-0.426,1.258-0.954,1.626C12.943,39.664,12.515,39.539,12.515,39.009"/>
<path style="fill:#FFFFFF;" d="M9.712,40.971c0-0.526,0.428-1.256,0.955-1.625c0.528-0.371,0.955-0.243,0.955,0.285
	c0,0.528-0.427,1.257-0.955,1.627C10.14,41.627,9.712,41.5,9.712,40.971"/>
<path style="fill:#FFFFFF;" d="M6.91,42.934c0-0.528,0.427-1.256,0.956-1.626c0.528-0.37,0.954-0.243,0.954,0.285
	c0,0.529-0.426,1.256-0.954,1.626C7.337,43.589,6.91,43.463,6.91,42.934"/>
<path style="fill:#FFFFFF;" d="M15.318,39.837c0-0.528,0.428-1.256,0.956-1.626c0.528-0.37,0.955-0.242,0.955,0.285
	c0,0.529-0.427,1.258-0.955,1.626C15.746,40.492,15.318,40.367,15.318,39.837"/>
<path style="fill:#FFFFFF;" d="M12.515,41.8c0-0.528,0.427-1.257,0.955-1.628c0.528-0.37,0.954-0.242,0.954,0.286
	c0,0.528-0.426,1.257-0.954,1.627C12.943,42.455,12.515,42.328,12.515,41.8"/>
<path style="fill:#FFFFFF;" d="M9.712,43.762c0-0.528,0.428-1.256,0.955-1.626c0.528-0.37,0.955-0.243,0.955,0.285
	c0,0.529-0.427,1.258-0.955,1.626C10.14,44.417,9.712,44.292,9.712,43.762"/>
<path style="fill:#FFFFFF;" d="M15.318,42.628c0-0.528,0.428-1.257,0.956-1.627c0.528-0.371,0.955-0.243,0.955,0.286
	c0,0.529-0.427,1.256-0.955,1.626C15.746,43.283,15.318,43.156,15.318,42.628"/>
<path style="fill:#FFFFFF;" d="M12.515,44.59c0-0.528,0.427-1.256,0.955-1.626c0.528-0.37,0.954-0.242,0.954,0.285
	c0,0.529-0.426,1.258-0.954,1.626C12.943,45.245,12.515,45.12,12.515,44.59"/>
<path style="fill:#FFFFFF;" d="M9.712,46.553c0-0.528,0.428-1.257,0.955-1.628c0.528-0.37,0.955-0.242,0.955,0.286
	c0,0.528-0.427,1.257-0.955,1.627C10.14,47.208,9.712,47.081,9.712,46.553"/>
<path style="fill:#FFFFFF;" d="M15.318,45.418c0-0.528,0.428-1.256,0.956-1.626c0.528-0.37,0.955-0.242,0.955,0.285
	c0,0.529-0.427,1.258-0.955,1.626C15.746,46.073,15.318,45.947,15.318,45.418"/>
<path style="fill:#FFFFFF;" d="M12.515,47.381c0-0.528,0.427-1.257,0.955-1.628c0.528-0.37,0.954-0.242,0.954,0.286
	c0,0.529-0.426,1.257-0.954,1.626C12.943,48.036,12.515,47.909,12.515,47.381"/>
<path style="fill:#FFFFFF;" d="M9.712,49.343c0-0.528,0.428-1.256,0.955-1.626c0.528-0.371,0.955-0.243,0.955,0.285
	c0,0.529-0.427,1.258-0.955,1.626C10.14,49.998,9.712,49.872,9.712,49.343"/>
<path style="fill:#FFFFFF;" d="M15.318,48.209c0-0.528,0.428-1.257,0.956-1.628c0.528-0.37,0.955-0.242,0.955,0.287
	c0,0.529-0.427,1.256-0.955,1.626C15.746,48.864,15.318,48.737,15.318,48.209"/>
<path style="fill:#FFFFFF;" d="M12.515,50.171c0-0.528,0.427-1.256,0.955-1.626c0.528-0.37,0.954-0.242,0.954,0.285
	c0,0.529-0.426,1.258-0.954,1.626C12.943,50.826,12.515,50.7,12.515,50.171"/>
<path style="fill:#FFFFFF;" d="M9.712,52.134c0-0.528,0.428-1.258,0.955-1.628c0.528-0.37,0.955-0.242,0.955,0.286
	c0,0.53-0.427,1.257-0.955,1.626C10.14,52.789,9.712,52.662,9.712,52.134"/>
<path style="fill:#FFFFFF;" d="M15.318,50.999c0-0.528,0.428-1.256,0.956-1.626c0.528-0.371,0.955-0.242,0.955,0.285
	c0,0.529-0.427,1.258-0.955,1.626C15.746,51.653,15.318,51.528,15.318,50.999"/>
<path style="fill:#FFFFFF;" d="M12.515,52.961c0-0.527,0.427-1.257,0.955-1.626c0.528-0.371,0.954-0.243,0.954,0.285
	c0,0.528-0.426,1.257-0.954,1.627C12.943,53.617,12.515,53.49,12.515,52.961"/>
<path style="fill:#FFFFFF;" d="M9.712,54.924c0-0.528,0.428-1.256,0.955-1.626c0.528-0.371,0.955-0.242,0.955,0.285
	c0,0.528-0.427,1.258-0.955,1.626C10.14,55.579,9.712,55.453,9.712,54.924"/>
<path style="fill:#FFFFFF;" d="M4.108,42.106c0-0.528,0.427-1.256,0.955-1.626c0.528-0.37,0.955-0.243,0.955,0.284
	c0,0.53-0.427,1.258-0.955,1.627C4.535,42.761,4.108,42.635,4.108,42.106"/>
<path style="fill:#FFFFFF;" d="M20.923,30.332c0-0.528,0.428-1.256,0.955-1.626c0.528-0.371,0.955-0.243,0.955,0.284
	c0,0.53-0.428,1.258-0.955,1.627C21.351,30.986,20.923,30.861,20.923,30.332"/>
<path style="fill:#FFFFFF;" d="M18.121,32.293c0-0.527,0.428-1.256,0.955-1.626c0.529-0.37,0.955-0.242,0.955,0.286
	c0,0.528-0.426,1.257-0.955,1.626C18.549,32.949,18.121,32.823,18.121,32.293"/>
<path style="fill:#FFFFFF;" d="M15.318,34.256c0-0.527,0.428-1.256,0.956-1.626c0.528-0.37,0.955-0.242,0.955,0.285
	c0,0.529-0.427,1.258-0.955,1.626C15.746,34.912,15.318,34.786,15.318,34.256"/>
<path style="fill:#FFFFFF;" d="M12.515,36.219c0-0.527,0.427-1.256,0.955-1.626c0.528-0.37,0.954-0.243,0.954,0.286
	c0,0.528-0.426,1.256-0.954,1.626C12.943,36.874,12.515,36.747,12.515,36.219"/>
<path style="fill:#FFFFFF;" d="M9.712,38.181c0-0.528,0.428-1.256,0.955-1.626c0.528-0.37,0.955-0.242,0.955,0.285
	c0,0.529-0.427,1.258-0.955,1.626C10.14,38.836,9.712,38.71,9.712,38.181"/>
<path style="fill:#FFFFFF;" d="M6.91,40.144c0-0.527,0.427-1.257,0.956-1.627c0.528-0.371,0.954-0.242,0.954,0.286
	c0,0.528-0.426,1.257-0.954,1.627C7.337,40.798,6.91,40.672,6.91,40.144"/>
<path style="fill:#FFFFFF;" d="M4.108,44.896c0-0.526,0.427-1.256,0.955-1.626c0.528-0.371,0.955-0.242,0.955,0.286
	c0,0.528-0.427,1.257-0.955,1.626C4.535,45.552,4.108,45.425,4.108,44.896"/>
<path style="fill:#FFFFFF;" d="M20.923,33.122c0-0.528,0.428-1.257,0.955-1.627c0.528-0.37,0.955-0.242,0.955,0.286
	c0,0.528-0.428,1.257-0.955,1.626C21.351,33.777,20.923,33.651,20.923,33.122"/>
<path style="fill:#FFFFFF;" d="M18.121,35.085c0-0.528,0.428-1.256,0.955-1.627c0.529-0.37,0.955-0.242,0.955,0.285
	c0,0.529-0.426,1.258-0.955,1.627C18.549,35.739,18.121,35.614,18.121,35.085"/>
<path style="fill:#FFFFFF;" d="M15.318,37.047c0-0.528,0.428-1.257,0.956-1.627c0.528-0.37,0.955-0.243,0.955,0.286
	c0,0.528-0.427,1.257-0.955,1.626C15.746,37.702,15.318,37.575,15.318,37.047"/>
<path style="fill:#FFFFFF;" d="M12.515,39.009c0-0.528,0.427-1.256,0.955-1.626c0.528-0.37,0.954-0.242,0.954,0.285
	c0,0.529-0.426,1.258-0.954,1.626C12.943,39.664,12.515,39.539,12.515,39.009"/>
<path style="fill:#FFFFFF;" d="M9.712,40.971c0-0.526,0.428-1.256,0.955-1.625c0.528-0.371,0.955-0.243,0.955,0.285
	c0,0.528-0.427,1.257-0.955,1.627C10.14,41.627,9.712,41.5,9.712,40.971"/>
<path style="fill:#FFFFFF;" d="M6.91,42.934c0-0.528,0.427-1.256,0.956-1.626c0.528-0.37,0.954-0.243,0.954,0.285
	c0,0.529-0.426,1.256-0.954,1.626C7.337,43.589,6.91,43.463,6.91,42.934"/>
<path style="fill:#FFFFFF;" d="M15.318,39.837c0-0.528,0.428-1.256,0.956-1.626c0.528-0.37,0.955-0.242,0.955,0.285
	c0,0.529-0.427,1.258-0.955,1.626C15.746,40.492,15.318,40.367,15.318,39.837"/>
<path style="fill:#FFFFFF;" d="M12.515,41.8c0-0.528,0.427-1.257,0.955-1.628c0.528-0.37,0.954-0.242,0.954,0.286
	c0,0.528-0.426,1.257-0.954,1.627C12.943,42.455,12.515,42.328,12.515,41.8"/>
<path style="fill:#FFFFFF;" d="M9.712,43.762c0-0.528,0.428-1.256,0.955-1.626c0.528-0.37,0.955-0.243,0.955,0.285
	c0,0.529-0.427,1.258-0.955,1.626C10.14,44.417,9.712,44.292,9.712,43.762"/>
<path style="fill:#FFFFFF;" d="M15.318,42.628c0-0.528,0.428-1.257,0.956-1.627c0.528-0.371,0.955-0.243,0.955,0.286
	c0,0.529-0.427,1.256-0.955,1.626C15.746,43.283,15.318,43.156,15.318,42.628"/>
<path style="fill:#FFFFFF;" d="M12.515,44.59c0-0.528,0.427-1.256,0.955-1.626c0.528-0.37,0.954-0.242,0.954,0.285
	c0,0.529-0.426,1.258-0.954,1.626C12.943,45.245,12.515,45.12,12.515,44.59"/>
<path style="fill:#FFFFFF;" d="M9.712,46.553c0-0.528,0.428-1.257,0.955-1.628c0.528-0.37,0.955-0.242,0.955,0.286
	c0,0.528-0.427,1.257-0.955,1.627C10.14,47.208,9.712,47.081,9.712,46.553"/>
<path style="fill:#FFFFFF;" d="M15.318,45.418c0-0.528,0.428-1.256,0.956-1.626c0.528-0.37,0.955-0.242,0.955,0.285
	c0,0.529-0.427,1.258-0.955,1.626C15.746,46.073,15.318,45.947,15.318,45.418"/>
<path style="fill:#FFFFFF;" d="M12.515,47.381c0-0.528,0.427-1.257,0.955-1.628c0.528-0.37,0.954-0.242,0.954,0.286
	c0,0.529-0.426,1.257-0.954,1.626C12.943,48.036,12.515,47.909,12.515,47.381"/>
<path style="fill:#FFFFFF;" d="M9.712,49.343c0-0.528,0.428-1.256,0.955-1.626c0.528-0.371,0.955-0.243,0.955,0.285
	c0,0.529-0.427,1.258-0.955,1.626C10.14,49.998,9.712,49.872,9.712,49.343"/>
<path style="fill:#FFFFFF;" d="M15.318,48.209c0-0.528,0.428-1.257,0.956-1.628c0.528-0.37,0.955-0.242,0.955,0.287
	c0,0.529-0.427,1.256-0.955,1.626C15.746,48.864,15.318,48.737,15.318,48.209"/>
<path style="fill:#FFFFFF;" d="M12.515,50.171c0-0.528,0.427-1.256,0.955-1.626c0.528-0.37,0.954-0.242,0.954,0.285
	c0,0.529-0.426,1.258-0.954,1.626C12.943,50.826,12.515,50.7,12.515,50.171"/>
<path style="fill:#FFFFFF;" d="M9.712,52.134c0-0.528,0.428-1.258,0.955-1.628c0.528-0.37,0.955-0.242,0.955,0.286
	c0,0.53-0.427,1.257-0.955,1.626C10.14,52.789,9.712,52.662,9.712,52.134"/>
<path style="fill:#FFFFFF;" d="M15.318,50.999c0-0.528,0.428-1.256,0.956-1.626c0.528-0.371,0.955-0.242,0.955,0.285
	c0,0.529-0.427,1.258-0.955,1.626C15.746,51.653,15.318,51.528,15.318,50.999"/>
<path style="fill:#FFFFFF;" d="M12.515,52.961c0-0.527,0.427-1.257,0.955-1.626c0.528-0.371,0.954-0.243,0.954,0.285
	c0,0.528-0.426,1.257-0.954,1.627C12.943,53.617,12.515,53.49,12.515,52.961"/>
<path style="fill:#FFFFFF;" d="M9.712,54.924c0-0.528,0.428-1.256,0.955-1.626c0.528-0.371,0.955-0.242,0.955,0.285
	c0,0.528-0.427,1.258-0.955,1.626C10.14,55.579,9.712,55.453,9.712,54.924"/>
</svg>
