<?xml version="1.0" encoding="utf-8"?>
<!-- Generator: Adobe Illustrator 17.1.0, SVG Export Plug-In . SVG Version: 6.00 Build 0)  -->
<!DOCTYPE svg PUBLIC "-//W3C//DTD SVG 1.1//EN" "http://www.w3.org/Graphics/SVG/1.1/DTD/svg11.dtd">
<svg version="1.1" id="Layer_2" xmlns="http://www.w3.org/2000/svg" xmlns:xlink="http://www.w3.org/1999/xlink" x="0px" y="0px"
	 viewBox="28 0 139.3 100" enable-background="new 28 0 139.3 100" xml:space="preserve">
<g>
	<g>
		<path fill="#FFFFFF" d="M46.3,90.1h-2.7l-2.5-8.9c-0.1-0.4-0.2-1-0.4-1.7c-0.2-0.7-0.3-1.2-0.3-1.5c-0.1,0.4-0.2,1-0.3,1.7
			c-0.2,0.7-0.3,1.2-0.4,1.6l-2.5,8.9h-2.7l-1.9-7.5l-2-7.5h2.5l2.1,8.7c0.3,1.4,0.6,2.6,0.7,3.7c0.1-0.6,0.2-1.2,0.3-1.9
			c0.2-0.7,0.3-1.3,0.4-1.7l2.4-8.7h2.4l2.5,8.8c0.2,0.8,0.5,2,0.8,3.6c0.1-1,0.3-2.2,0.7-3.7l2.1-8.7h2.5L46.3,90.1z"/>
		<path fill="#FFFFFF" d="M58,90.1l-0.5-1.6h-0.1c-0.5,0.7-1.1,1.2-1.6,1.4c-0.6,0.2-1.3,0.4-2.1,0.4c-1.1,0-2-0.3-2.6-0.9
			c-0.6-0.6-0.9-1.5-0.9-2.6c0-1.2,0.4-2,1.3-2.6c0.9-0.6,2.2-0.9,4-1l2-0.1v-0.6c0-0.7-0.2-1.3-0.5-1.6c-0.3-0.4-0.9-0.5-1.6-0.5
			c-0.6,0-1.1,0.1-1.7,0.3c-0.5,0.2-1,0.4-1.5,0.6l-0.8-1.7c0.6-0.3,1.3-0.6,2-0.7c0.7-0.2,1.4-0.3,2.1-0.3c1.4,0,2.5,0.3,3.3,0.9
			c0.7,0.6,1.1,1.6,1.1,3v7.6L58,90.1L58,90.1z M54.4,88.5c0.9,0,1.6-0.2,2.1-0.7c0.5-0.5,0.8-1.2,0.8-2.1v-1l-1.5,0.1
			c-1.1,0-2,0.2-2.5,0.6c-0.5,0.3-0.8,0.9-0.8,1.6c0,0.5,0.1,0.9,0.5,1.2C53.3,88.4,53.8,88.5,54.4,88.5z"/>
		<path fill="#FFFFFF" d="M66.5,88.4c0.6,0,1.2-0.1,1.8-0.3v1.8c-0.3,0.1-0.6,0.2-1,0.3c-0.4,0.1-0.9,0.1-1.3,0.1
			c-2.3,0-3.4-1.2-3.4-3.6v-6.1h-1.5v-1.1l1.7-0.9l0.8-2.4h1.5v2.5h3.2v1.8h-3.2v6.1c0,0.6,0.1,1,0.4,1.3
			C65.6,88.3,66,88.4,66.5,88.4z"/>
		<path fill="#FFFFFF" d="M74.3,90.3c-1.7,0-3-0.5-3.9-1.5c-0.9-1-1.3-2.4-1.3-4.3c0-1.9,0.5-3.4,1.4-4.4c0.9-1,2.3-1.5,4-1.5
			c1.2,0,2.3,0.2,3.2,0.7L77,81.2c-1-0.4-1.9-0.6-2.5-0.6c-2,0-2.9,1.3-2.9,3.9c0,1.3,0.2,2.2,0.7,2.9c0.5,0.6,1.2,1,2.1,1
			c1.1,0,2.1-0.3,3-0.8v2.1c-0.4,0.3-0.9,0.4-1.4,0.5C75.6,90.3,75,90.3,74.3,90.3z"/>
		<path fill="#FFFFFF" d="M89.3,90.1h-2.4v-7c0-0.9-0.2-1.5-0.5-2c-0.4-0.4-0.9-0.6-1.7-0.6c-1,0-1.8,0.3-2.2,0.9
			c-0.5,0.6-0.7,1.6-0.7,3v5.6h-2.4V74.2h2.4v4c0,0.6,0,1.3-0.1,2.1h0.2c0.3-0.5,0.8-1,1.4-1.3c0.6-0.3,1.3-0.5,2-0.5
			c2.7,0,4.1,1.4,4.1,4.1C89.3,82.8,89.3,90.1,89.3,90.1z"/>
		<path fill="#FFFFFF" d="M94.2,86.2c0-0.9,0.2-1.7,0.7-2.3c0.4-0.7,1.2-1.3,2.4-2c-0.6-0.8-1.1-1.4-1.3-1.9
			c-0.2-0.5-0.4-1.1-0.4-1.6c0-1,0.4-1.9,1.1-2.5c0.7-0.6,1.7-0.9,3-0.9c1.2,0,2.2,0.3,2.8,0.9c0.7,0.6,1,1.4,1,2.4
			c0,0.8-0.2,1.5-0.7,2.1c-0.5,0.6-1.2,1.3-2.3,1.9l3.5,3.4c0.6-0.7,1-1.8,1.4-3.2h2.5c-0.5,1.9-1.2,3.5-2.3,4.7l3.1,3h-3.1
			l-1.5-1.5c-0.7,0.6-1.4,1-2.2,1.3c-0.8,0.3-1.7,0.4-2.6,0.4c-1.6,0-2.8-0.4-3.7-1.1C94.6,88.5,94.2,87.5,94.2,86.2z M99.3,88.3
			c1.2,0,2.3-0.4,3.2-1.1l-3.9-3.9c-0.7,0.5-1.2,0.9-1.5,1.3c-0.3,0.4-0.4,0.9-0.4,1.4c0,0.7,0.2,1.2,0.7,1.6
			C97.9,88.1,98.5,88.3,99.3,88.3z M97.8,78.4c0,0.4,0.1,0.8,0.3,1.2s0.5,0.8,1,1.2c0.8-0.4,1.3-0.8,1.6-1.2
			c0.3-0.4,0.5-0.8,0.5-1.3c0-0.4-0.1-0.8-0.4-1.1c-0.3-0.3-0.7-0.4-1.2-0.4c-0.5,0-1,0.1-1.3,0.4C98,77.6,97.8,77.9,97.8,78.4z"/>
		<path fill="#FFFFFF" d="M113,90.1v-15h2.4V88h6.3v2.1L113,90.1L113,90.1z"/>
		<path fill="#FFFFFF" d="M128.4,90.3c-1.8,0-3.1-0.5-4.1-1.5c-1-1-1.5-2.4-1.5-4.2c0-1.9,0.5-3.3,1.4-4.4c0.9-1.1,2.2-1.6,3.8-1.6
			c1.5,0,2.7,0.5,3.5,1.4c0.9,0.9,1.3,2.2,1.3,3.7V85h-7.6c0,1.1,0.3,1.9,0.9,2.5s1.3,0.9,2.4,0.9c0.7,0,1.3-0.1,1.9-0.2
			c0.6-0.1,1.2-0.3,1.9-0.6v2c-0.6,0.3-1.2,0.5-1.8,0.6C129.8,90.3,129.1,90.3,128.4,90.3z M127.9,80.4c-0.8,0-1.4,0.2-1.8,0.7
			c-0.5,0.5-0.7,1.2-0.8,2.1h5.1c0-0.9-0.2-1.6-0.7-2.1C129.3,80.7,128.7,80.4,127.9,80.4z"/>
		<path fill="#FFFFFF" d="M141.8,90.1l-0.5-1.6h-0.1c-0.5,0.7-1.1,1.2-1.6,1.4c-0.6,0.2-1.3,0.4-2.1,0.4c-1.1,0-2-0.3-2.6-0.9
			c-0.6-0.6-0.9-1.5-0.9-2.6c0-1.2,0.4-2,1.3-2.6c0.9-0.6,2.2-0.9,4-1l2-0.1v-0.6c0-0.7-0.2-1.3-0.5-1.6c-0.3-0.4-0.9-0.5-1.6-0.5
			c-0.6,0-1.1,0.1-1.7,0.3c-0.5,0.2-1,0.4-1.5,0.6l-0.8-1.7c0.6-0.3,1.3-0.6,2-0.7c0.7-0.2,1.4-0.3,2.1-0.3c1.4,0,2.5,0.3,3.3,0.9
			c0.7,0.6,1.1,1.6,1.1,3v7.6L141.8,90.1L141.8,90.1z M138.2,88.5c0.9,0,1.6-0.2,2.1-0.7c0.5-0.5,0.8-1.2,0.8-2.1v-1l-1.5,0.1
			c-1.1,0-2,0.2-2.5,0.6c-0.5,0.3-0.8,0.9-0.8,1.6c0,0.5,0.2,0.9,0.5,1.2C137.2,88.4,137.6,88.5,138.2,88.5z"/>
		<path fill="#FFFFFF" d="M151.8,78.6c0.5,0,0.9,0,1.2,0.1l-0.2,2.2c-0.3-0.1-0.7-0.1-1.1-0.1c-1,0-1.7,0.3-2.3,0.9
			c-0.6,0.6-0.9,1.4-0.9,2.4v5.9h-2.4V78.8h1.9l0.3,2h0.1c0.4-0.7,0.9-1.2,1.5-1.6C150.5,78.8,151.1,78.6,151.8,78.6z"/>
		<path fill="#FFFFFF" d="M164.4,90.1H162v-7c0-0.9-0.2-1.5-0.5-2c-0.4-0.4-0.9-0.6-1.7-0.6c-1,0-1.8,0.3-2.2,0.9
			c-0.5,0.6-0.7,1.6-0.7,3v5.6h-2.4V78.8h1.9l0.3,1.5h0.1c0.3-0.5,0.8-1,1.5-1.2c0.6-0.3,1.3-0.4,2.1-0.4c2.7,0,4.1,1.4,4.1,4.1
			L164.4,90.1L164.4,90.1z"/>
	</g>
	<g id="Your_Icon_2_">
		<g>
			<g>
				<path fill="#FFFFFF" d="M97.1,23c-5.9,0-10.6,4.7-10.6,10.6s4.7,10.6,10.6,10.6s10.6-4.7,10.6-10.6S103,23,97.1,23z M93.4,40.2
					V27l9.2,6.5L93.4,40.2z"/>
			</g>
			<g>
				<path fill="#FFFFFF" d="M130.9,53.8c0,2-1.7,3.6-3.6,3.6H66.9c-2,0-3.6-1.7-3.6-3.6V15.2c0-2,1.7-3.6,3.6-3.6h60.3
					c2,0,3.6,1.7,3.6,3.6C130.9,15.2,130.9,53.8,130.9,53.8z M66.3,14.5v39.2h61V14.5C127.3,14.5,66.3,14.5,66.3,14.5z"/>
			</g>
		</g>
	</g>
</g>
</svg>
